<?xml version="1.0" encoding="utf-8" standalone="no"?>
<!DOCTYPE svg PUBLIC "-//W3C//DTD SVG 1.1//EN"
  "http://www.w3.org/Graphics/SVG/1.1/DTD/svg11.dtd">
<svg xmlns:xlink="http://www.w3.org/1999/xlink" width="1165.39375pt" height="488.141875pt" viewBox="0 0 1165.39375 488.141875" xmlns="http://www.w3.org/2000/svg" version="1.1">
 <metadata>
  <rdf:RDF xmlns:dc="http://purl.org/dc/elements/1.1/" xmlns:cc="http://creativecommons.org/ns#" xmlns:rdf="http://www.w3.org/1999/02/22-rdf-syntax-ns#">
   <cc:Work>
    <dc:type rdf:resource="http://purl.org/dc/dcmitype/StillImage"/>
    <dc:date>2026-07-23T17:15:39.658994</dc:date>
    <dc:format>image/svg+xml</dc:format>
    <dc:creator>
     <cc:Agent>
      <dc:title>Matplotlib v3.10.8, https://matplotlib.org/</dc:title>
     </cc:Agent>
    </dc:creator>
   </cc:Work>
  </rdf:RDF>
 </metadata>
 <defs>
  <style type="text/css">*{stroke-linejoin: round; stroke-linecap: butt}</style>
 </defs>
 <g id="figure_1">
  <g id="patch_1">
   <path d="M 0 488.141875 
L 1165.39375 488.141875 
L 1165.39375 0 
L 0 0 
z
" style="fill: #ffffff"/>
  </g>
  <g id="axes_1">
   <g id="patch_2">
    <path d="M 42.19375 450.72 
L 1158.19375 450.72 
L 1158.19375 7.2 
L 42.19375 7.2 
z
" style="fill: #ffffff"/>
   </g>
   <g id="patch_3">
    <path d="M 46.123327 450.72 
L 50.052905 450.72 
L 50.052905 450.72 
L 46.123327 450.72 
z
" clip-path="url(#p42be29a4dd)" style="fill: #1f77b4"/>
   </g>
   <g id="patch_4">
    <path d="M 61.841637 450.72 
L 65.771215 450.72 
L 65.771215 450.72 
L 61.841637 450.72 
z
" clip-path="url(#p42be29a4dd)" style="fill: #1f77b4"/>
   </g>
   <g id="patch_5">
    <path d="M 77.559947 450.72 
L 81.489525 450.72 
L 81.489525 425.725917 
L 77.559947 425.725917 
z
" clip-path="url(#p42be29a4dd)" style="fill: #1f77b4"/>
   </g>
   <g id="patch_6">
    <path d="M 93.278257 450.72 
L 97.207835 450.72 
L 97.207835 418.227692 
L 93.278257 418.227692 
z
" clip-path="url(#p42be29a4dd)" style="fill: #1f77b4"/>
   </g>
   <g id="patch_7">
    <path d="M 108.996567 450.72 
L 112.926144 450.72 
L 112.926144 450.72 
L 108.996567 450.72 
z
" clip-path="url(#p42be29a4dd)" style="fill: #1f77b4"/>
   </g>
   <g id="patch_8">
    <path d="M 124.714877 450.72 
L 128.644454 450.72 
L 128.644454 423.226509 
L 124.714877 423.226509 
z
" clip-path="url(#p42be29a4dd)" style="fill: #1f77b4"/>
   </g>
   <g id="patch_9">
    <path d="M 140.433187 450.72 
L 144.362764 450.72 
L 144.362764 450.72 
L 140.433187 450.72 
z
" clip-path="url(#p42be29a4dd)" style="fill: #1f77b4"/>
   </g>
   <g id="patch_10">
    <path d="M 156.151496 450.72 
L 160.081074 450.72 
L 160.081074 450.72 
L 156.151496 450.72 
z
" clip-path="url(#p42be29a4dd)" style="fill: #1f77b4"/>
   </g>
   <g id="patch_11">
    <path d="M 171.869806 450.72 
L 175.799384 450.72 
L 175.799384 450.72 
L 171.869806 450.72 
z
" clip-path="url(#p42be29a4dd)" style="fill: #1f77b4"/>
   </g>
   <g id="patch_12">
    <path d="M 187.588116 450.72 
L 191.517694 450.72 
L 191.517694 438.222959 
L 187.588116 438.222959 
z
" clip-path="url(#p42be29a4dd)" style="fill: #1f77b4"/>
   </g>
   <g id="patch_13">
    <path d="M 203.306426 450.72 
L 207.236004 450.72 
L 207.236004 450.72 
L 203.306426 450.72 
z
" clip-path="url(#p42be29a4dd)" style="fill: #1f77b4"/>
   </g>
   <g id="patch_14">
    <path d="M 219.024736 450.72 
L 222.954313 450.72 
L 222.954313 450.72 
L 219.024736 450.72 
z
" clip-path="url(#p42be29a4dd)" style="fill: #1f77b4"/>
   </g>
   <g id="patch_15">
    <path d="M 234.743046 450.72 
L 238.672623 450.72 
L 238.672623 428.225325 
L 234.743046 428.225325 
z
" clip-path="url(#p42be29a4dd)" style="fill: #1f77b4"/>
   </g>
   <g id="patch_16">
    <path d="M 250.461356 450.72 
L 254.390933 450.72 
L 254.390933 418.227692 
L 250.461356 418.227692 
z
" clip-path="url(#p42be29a4dd)" style="fill: #1f77b4"/>
   </g>
   <g id="patch_17">
    <path d="M 266.179665 450.72 
L 270.109243 450.72 
L 270.109243 450.72 
L 266.179665 450.72 
z
" clip-path="url(#p42be29a4dd)" style="fill: #1f77b4"/>
   </g>
   <g id="patch_18">
    <path d="M 281.897975 450.72 
L 285.827553 450.72 
L 285.827553 345.744852 
L 281.897975 345.744852 
z
" clip-path="url(#p42be29a4dd)" style="fill: #1f77b4"/>
   </g>
   <g id="patch_19">
    <path d="M 297.616285 450.72 
L 301.545863 450.72 
L 301.545863 403.231243 
L 297.616285 403.231243 
z
" clip-path="url(#p42be29a4dd)" style="fill: #1f77b4"/>
   </g>
   <g id="patch_20">
    <path d="M 313.334595 450.72 
L 317.264173 450.72 
L 317.264173 450.72 
L 313.334595 450.72 
z
" clip-path="url(#p42be29a4dd)" style="fill: #1f77b4"/>
   </g>
   <g id="patch_21">
    <path d="M 329.052905 450.72 
L 332.982482 450.72 
L 332.982482 450.72 
L 329.052905 450.72 
z
" clip-path="url(#p42be29a4dd)" style="fill: #1f77b4"/>
   </g>
   <g id="patch_22">
    <path d="M 344.771215 450.72 
L 348.700792 450.72 
L 348.700792 450.72 
L 344.771215 450.72 
z
" clip-path="url(#p42be29a4dd)" style="fill: #1f77b4"/>
   </g>
   <g id="patch_23">
    <path d="M 360.489525 450.72 
L 364.419102 450.72 
L 364.419102 448.220592 
L 360.489525 448.220592 
z
" clip-path="url(#p42be29a4dd)" style="fill: #1f77b4"/>
   </g>
   <g id="patch_24">
    <path d="M 376.207835 450.72 
L 380.137412 450.72 
L 380.137412 448.220592 
L 376.207835 448.220592 
z
" clip-path="url(#p42be29a4dd)" style="fill: #1f77b4"/>
   </g>
   <g id="patch_25">
    <path d="M 391.926144 450.72 
L 395.855722 450.72 
L 395.855722 450.72 
L 391.926144 450.72 
z
" clip-path="url(#p42be29a4dd)" style="fill: #1f77b4"/>
   </g>
   <g id="patch_26">
    <path d="M 407.644454 450.72 
L 411.574032 450.72 
L 411.574032 450.72 
L 407.644454 450.72 
z
" clip-path="url(#p42be29a4dd)" style="fill: #1f77b4"/>
   </g>
   <g id="patch_27">
    <path d="M 423.362764 450.72 
L 427.292342 450.72 
L 427.292342 450.72 
L 423.362764 450.72 
z
" clip-path="url(#p42be29a4dd)" style="fill: #1f77b4"/>
   </g>
   <g id="patch_28">
    <path d="M 439.081074 450.72 
L 443.010651 450.72 
L 443.010651 410.729467 
L 439.081074 410.729467 
z
" clip-path="url(#p42be29a4dd)" style="fill: #1f77b4"/>
   </g>
   <g id="patch_29">
    <path d="M 454.799384 450.72 
L 458.728961 450.72 
L 458.728961 440.722367 
L 454.799384 440.722367 
z
" clip-path="url(#p42be29a4dd)" style="fill: #1f77b4"/>
   </g>
   <g id="patch_30">
    <path d="M 470.517694 450.72 
L 474.447271 450.72 
L 474.447271 418.227692 
L 470.517694 418.227692 
z
" clip-path="url(#p42be29a4dd)" style="fill: #1f77b4"/>
   </g>
   <g id="patch_31">
    <path d="M 486.236004 450.72 
L 490.165581 450.72 
L 490.165581 358.241893 
L 486.236004 358.241893 
z
" clip-path="url(#p42be29a4dd)" style="fill: #1f77b4"/>
   </g>
   <g id="patch_32">
    <path d="M 501.954313 450.72 
L 505.883891 450.72 
L 505.883891 450.72 
L 501.954313 450.72 
z
" clip-path="url(#p42be29a4dd)" style="fill: #1f77b4"/>
   </g>
   <g id="patch_33">
    <path d="M 517.672623 450.72 
L 521.602201 450.72 
L 521.602201 435.72355 
L 517.672623 435.72355 
z
" clip-path="url(#p42be29a4dd)" style="fill: #1f77b4"/>
   </g>
   <g id="patch_34">
    <path d="M 533.390933 450.72 
L 537.320511 450.72 
L 537.320511 413.228876 
L 533.390933 413.228876 
z
" clip-path="url(#p42be29a4dd)" style="fill: #1f77b4"/>
   </g>
   <g id="patch_35">
    <path d="M 549.109243 450.72 
L 553.03882 450.72 
L 553.03882 425.725917 
L 549.109243 425.725917 
z
" clip-path="url(#p42be29a4dd)" style="fill: #1f77b4"/>
   </g>
   <g id="patch_36">
    <path d="M 564.827553 450.72 
L 568.75713 450.72 
L 568.75713 435.72355 
L 564.827553 435.72355 
z
" clip-path="url(#p42be29a4dd)" style="fill: #1f77b4"/>
   </g>
   <g id="patch_37">
    <path d="M 580.545863 450.72 
L 584.47544 450.72 
L 584.47544 450.72 
L 580.545863 450.72 
z
" clip-path="url(#p42be29a4dd)" style="fill: #1f77b4"/>
   </g>
   <g id="patch_38">
    <path d="M 596.264173 450.72 
L 600.19375 450.72 
L 600.19375 405.730651 
L 596.264173 405.730651 
z
" clip-path="url(#p42be29a4dd)" style="fill: #1f77b4"/>
   </g>
   <g id="patch_39">
    <path d="M 611.982482 450.72 
L 615.91206 450.72 
L 615.91206 450.72 
L 611.982482 450.72 
z
" clip-path="url(#p42be29a4dd)" style="fill: #1f77b4"/>
   </g>
   <g id="patch_40">
    <path d="M 627.700792 450.72 
L 631.63037 450.72 
L 631.63037 450.72 
L 627.700792 450.72 
z
" clip-path="url(#p42be29a4dd)" style="fill: #1f77b4"/>
   </g>
   <g id="patch_41">
    <path d="M 643.419102 450.72 
L 647.34868 450.72 
L 647.34868 450.72 
L 643.419102 450.72 
z
" clip-path="url(#p42be29a4dd)" style="fill: #1f77b4"/>
   </g>
   <g id="patch_42">
    <path d="M 659.137412 450.72 
L 663.066989 450.72 
L 663.066989 450.72 
L 659.137412 450.72 
z
" clip-path="url(#p42be29a4dd)" style="fill: #1f77b4"/>
   </g>
   <g id="patch_43">
    <path d="M 674.855722 450.72 
L 678.785299 450.72 
L 678.785299 450.72 
L 674.855722 450.72 
z
" clip-path="url(#p42be29a4dd)" style="fill: #1f77b4"/>
   </g>
   <g id="patch_44">
    <path d="M 690.574032 450.72 
L 694.503609 450.72 
L 694.503609 435.72355 
L 690.574032 435.72355 
z
" clip-path="url(#p42be29a4dd)" style="fill: #1f77b4"/>
   </g>
   <g id="patch_45">
    <path d="M 706.292342 450.72 
L 710.221919 450.72 
L 710.221919 450.72 
L 706.292342 450.72 
z
" clip-path="url(#p42be29a4dd)" style="fill: #1f77b4"/>
   </g>
   <g id="patch_46">
    <path d="M 722.010651 450.72 
L 725.940229 450.72 
L 725.940229 38.317633 
L 722.010651 38.317633 
z
" clip-path="url(#p42be29a4dd)" style="fill: #1f77b4"/>
   </g>
   <g id="patch_47">
    <path d="M 737.728961 450.72 
L 741.658539 450.72 
L 741.658539 450.72 
L 737.728961 450.72 
z
" clip-path="url(#p42be29a4dd)" style="fill: #1f77b4"/>
   </g>
   <g id="patch_48">
    <path d="M 753.447271 450.72 
L 757.376849 450.72 
L 757.376849 450.72 
L 753.447271 450.72 
z
" clip-path="url(#p42be29a4dd)" style="fill: #1f77b4"/>
   </g>
   <g id="patch_49">
    <path d="M 769.165581 450.72 
L 773.095158 450.72 
L 773.095158 448.220592 
L 769.165581 448.220592 
z
" clip-path="url(#p42be29a4dd)" style="fill: #1f77b4"/>
   </g>
   <g id="patch_50">
    <path d="M 784.883891 450.72 
L 788.813468 450.72 
L 788.813468 450.72 
L 784.883891 450.72 
z
" clip-path="url(#p42be29a4dd)" style="fill: #1f77b4"/>
   </g>
   <g id="patch_51">
    <path d="M 800.602201 450.72 
L 804.531778 450.72 
L 804.531778 438.222959 
L 800.602201 438.222959 
z
" clip-path="url(#p42be29a4dd)" style="fill: #1f77b4"/>
   </g>
   <g id="patch_52">
    <path d="M 816.320511 450.72 
L 820.250088 450.72 
L 820.250088 450.72 
L 816.320511 450.72 
z
" clip-path="url(#p42be29a4dd)" style="fill: #1f77b4"/>
   </g>
   <g id="patch_53">
    <path d="M 832.03882 450.72 
L 835.968398 450.72 
L 835.968398 450.72 
L 832.03882 450.72 
z
" clip-path="url(#p42be29a4dd)" style="fill: #1f77b4"/>
   </g>
   <g id="patch_54">
    <path d="M 847.75713 450.72 
L 851.686708 450.72 
L 851.686708 440.722367 
L 847.75713 440.722367 
z
" clip-path="url(#p42be29a4dd)" style="fill: #1f77b4"/>
   </g>
   <g id="patch_55">
    <path d="M 863.47544 450.72 
L 867.405018 450.72 
L 867.405018 450.72 
L 863.47544 450.72 
z
" clip-path="url(#p42be29a4dd)" style="fill: #1f77b4"/>
   </g>
   <g id="patch_56">
    <path d="M 879.19375 450.72 
L 883.123327 450.72 
L 883.123327 428.225325 
L 879.19375 428.225325 
z
" clip-path="url(#p42be29a4dd)" style="fill: #1f77b4"/>
   </g>
   <g id="patch_57">
    <path d="M 894.91206 450.72 
L 898.841637 450.72 
L 898.841637 440.722367 
L 894.91206 440.722367 
z
" clip-path="url(#p42be29a4dd)" style="fill: #1f77b4"/>
   </g>
   <g id="patch_58">
    <path d="M 910.63037 450.72 
L 914.559947 450.72 
L 914.559947 450.72 
L 910.63037 450.72 
z
" clip-path="url(#p42be29a4dd)" style="fill: #1f77b4"/>
   </g>
   <g id="patch_59">
    <path d="M 926.34868 450.72 
L 930.278257 450.72 
L 930.278257 450.72 
L 926.34868 450.72 
z
" clip-path="url(#p42be29a4dd)" style="fill: #1f77b4"/>
   </g>
   <g id="patch_60">
    <path d="M 942.066989 450.72 
L 945.996567 450.72 
L 945.996567 450.72 
L 942.066989 450.72 
z
" clip-path="url(#p42be29a4dd)" style="fill: #1f77b4"/>
   </g>
   <g id="patch_61">
    <path d="M 957.785299 450.72 
L 961.714877 450.72 
L 961.714877 443.221775 
L 957.785299 443.221775 
z
" clip-path="url(#p42be29a4dd)" style="fill: #1f77b4"/>
   </g>
   <g id="patch_62">
    <path d="M 973.503609 450.72 
L 977.433187 450.72 
L 977.433187 388.234793 
L 973.503609 388.234793 
z
" clip-path="url(#p42be29a4dd)" style="fill: #1f77b4"/>
   </g>
   <g id="patch_63">
    <path d="M 989.221919 450.72 
L 993.151496 450.72 
L 993.151496 450.72 
L 989.221919 450.72 
z
" clip-path="url(#p42be29a4dd)" style="fill: #1f77b4"/>
   </g>
   <g id="patch_64">
    <path d="M 1004.940229 450.72 
L 1008.869806 450.72 
L 1008.869806 430.724734 
L 1004.940229 430.724734 
z
" clip-path="url(#p42be29a4dd)" style="fill: #1f77b4"/>
   </g>
   <g id="patch_65">
    <path d="M 1020.658539 450.72 
L 1024.588116 450.72 
L 1024.588116 443.221775 
L 1020.658539 443.221775 
z
" clip-path="url(#p42be29a4dd)" style="fill: #1f77b4"/>
   </g>
   <g id="patch_66">
    <path d="M 1036.376849 450.72 
L 1040.306426 450.72 
L 1040.306426 450.72 
L 1036.376849 450.72 
z
" clip-path="url(#p42be29a4dd)" style="fill: #1f77b4"/>
   </g>
   <g id="patch_67">
    <path d="M 1052.095158 450.72 
L 1056.024736 450.72 
L 1056.024736 373.238343 
L 1052.095158 373.238343 
z
" clip-path="url(#p42be29a4dd)" style="fill: #1f77b4"/>
   </g>
   <g id="patch_68">
    <path d="M 1067.813468 450.72 
L 1071.743046 450.72 
L 1071.743046 438.222959 
L 1067.813468 438.222959 
z
" clip-path="url(#p42be29a4dd)" style="fill: #1f77b4"/>
   </g>
   <g id="patch_69">
    <path d="M 1083.531778 450.72 
L 1087.461356 450.72 
L 1087.461356 450.72 
L 1083.531778 450.72 
z
" clip-path="url(#p42be29a4dd)" style="fill: #1f77b4"/>
   </g>
   <g id="patch_70">
    <path d="M 1099.250088 450.72 
L 1103.179665 450.72 
L 1103.179665 450.72 
L 1099.250088 450.72 
z
" clip-path="url(#p42be29a4dd)" style="fill: #1f77b4"/>
   </g>
   <g id="patch_71">
    <path d="M 1114.968398 450.72 
L 1118.897975 450.72 
L 1118.897975 450.72 
L 1114.968398 450.72 
z
" clip-path="url(#p42be29a4dd)" style="fill: #1f77b4"/>
   </g>
   <g id="patch_72">
    <path d="M 1130.686708 450.72 
L 1134.616285 450.72 
L 1134.616285 450.72 
L 1130.686708 450.72 
z
" clip-path="url(#p42be29a4dd)" style="fill: #1f77b4"/>
   </g>
   <g id="patch_73">
    <path d="M 1146.405018 450.72 
L 1150.334595 450.72 
L 1150.334595 443.221775 
L 1146.405018 443.221775 
z
" clip-path="url(#p42be29a4dd)" style="fill: #1f77b4"/>
   </g>
   <g id="patch_74">
    <path d="M 50.052905 450.72 
L 53.982482 450.72 
L 53.982482 443.221775 
L 50.052905 443.221775 
z
" clip-path="url(#p42be29a4dd)" style="fill: #ff7f0e"/>
   </g>
   <g id="patch_75">
    <path d="M 65.771215 450.72 
L 69.700792 450.72 
L 69.700792 450.72 
L 65.771215 450.72 
z
" clip-path="url(#p42be29a4dd)" style="fill: #ff7f0e"/>
   </g>
   <g id="patch_76">
    <path d="M 81.489525 450.72 
L 85.419102 450.72 
L 85.419102 433.224142 
L 81.489525 433.224142 
z
" clip-path="url(#p42be29a4dd)" style="fill: #ff7f0e"/>
   </g>
   <g id="patch_77">
    <path d="M 97.207835 450.72 
L 101.137412 450.72 
L 101.137412 413.228876 
L 97.207835 413.228876 
z
" clip-path="url(#p42be29a4dd)" style="fill: #ff7f0e"/>
   </g>
   <g id="patch_78">
    <path d="M 112.926144 450.72 
L 116.855722 450.72 
L 116.855722 450.72 
L 112.926144 450.72 
z
" clip-path="url(#p42be29a4dd)" style="fill: #ff7f0e"/>
   </g>
   <g id="patch_79">
    <path d="M 128.644454 450.72 
L 132.574032 450.72 
L 132.574032 430.724734 
L 128.644454 430.724734 
z
" clip-path="url(#p42be29a4dd)" style="fill: #ff7f0e"/>
   </g>
   <g id="patch_80">
    <path d="M 144.362764 450.72 
L 148.292342 450.72 
L 148.292342 443.221775 
L 144.362764 443.221775 
z
" clip-path="url(#p42be29a4dd)" style="fill: #ff7f0e"/>
   </g>
   <g id="patch_81">
    <path d="M 160.081074 450.72 
L 164.010651 450.72 
L 164.010651 433.224142 
L 160.081074 433.224142 
z
" clip-path="url(#p42be29a4dd)" style="fill: #ff7f0e"/>
   </g>
   <g id="patch_82">
    <path d="M 175.799384 450.72 
L 179.728961 450.72 
L 179.728961 443.221775 
L 175.799384 443.221775 
z
" clip-path="url(#p42be29a4dd)" style="fill: #ff7f0e"/>
   </g>
   <g id="patch_83">
    <path d="M 191.517694 450.72 
L 195.447271 450.72 
L 195.447271 318.251361 
L 191.517694 318.251361 
z
" clip-path="url(#p42be29a4dd)" style="fill: #ff7f0e"/>
   </g>
   <g id="patch_84">
    <path d="M 207.236004 450.72 
L 211.165581 450.72 
L 211.165581 413.228876 
L 207.236004 413.228876 
z
" clip-path="url(#p42be29a4dd)" style="fill: #ff7f0e"/>
   </g>
   <g id="patch_85">
    <path d="M 222.954313 450.72 
L 226.883891 450.72 
L 226.883891 403.231243 
L 222.954313 403.231243 
z
" clip-path="url(#p42be29a4dd)" style="fill: #ff7f0e"/>
   </g>
   <g id="patch_86">
    <path d="M 238.672623 450.72 
L 242.602201 450.72 
L 242.602201 443.221775 
L 238.672623 443.221775 
z
" clip-path="url(#p42be29a4dd)" style="fill: #ff7f0e"/>
   </g>
   <g id="patch_87">
    <path d="M 254.390933 450.72 
L 258.320511 450.72 
L 258.320511 393.233609 
L 254.390933 393.233609 
z
" clip-path="url(#p42be29a4dd)" style="fill: #ff7f0e"/>
   </g>
   <g id="patch_88">
    <path d="M 270.109243 450.72 
L 274.03882 450.72 
L 274.03882 415.728284 
L 270.109243 415.728284 
z
" clip-path="url(#p42be29a4dd)" style="fill: #ff7f0e"/>
   </g>
   <g id="patch_89">
    <path d="M 285.827553 450.72 
L 289.75713 450.72 
L 289.75713 413.228876 
L 285.827553 413.228876 
z
" clip-path="url(#p42be29a4dd)" style="fill: #ff7f0e"/>
   </g>
   <g id="patch_90">
    <path d="M 301.545863 450.72 
L 305.47544 450.72 
L 305.47544 398.232426 
L 301.545863 398.232426 
z
" clip-path="url(#p42be29a4dd)" style="fill: #ff7f0e"/>
   </g>
   <g id="patch_91">
    <path d="M 317.264173 450.72 
L 321.19375 450.72 
L 321.19375 450.72 
L 317.264173 450.72 
z
" clip-path="url(#p42be29a4dd)" style="fill: #ff7f0e"/>
   </g>
   <g id="patch_92">
    <path d="M 332.982482 450.72 
L 336.91206 450.72 
L 336.91206 418.227692 
L 332.982482 418.227692 
z
" clip-path="url(#p42be29a4dd)" style="fill: #ff7f0e"/>
   </g>
   <g id="patch_93">
    <path d="M 348.700792 450.72 
L 352.63037 450.72 
L 352.63037 408.230059 
L 348.700792 408.230059 
z
" clip-path="url(#p42be29a4dd)" style="fill: #ff7f0e"/>
   </g>
   <g id="patch_94">
    <path d="M 364.419102 450.72 
L 368.34868 450.72 
L 368.34868 450.72 
L 364.419102 450.72 
z
" clip-path="url(#p42be29a4dd)" style="fill: #ff7f0e"/>
   </g>
   <g id="patch_95">
    <path d="M 380.137412 450.72 
L 384.066989 450.72 
L 384.066989 393.233609 
L 380.137412 393.233609 
z
" clip-path="url(#p42be29a4dd)" style="fill: #ff7f0e"/>
   </g>
   <g id="patch_96">
    <path d="M 395.855722 450.72 
L 399.785299 450.72 
L 399.785299 318.251361 
L 395.855722 318.251361 
z
" clip-path="url(#p42be29a4dd)" style="fill: #ff7f0e"/>
   </g>
   <g id="patch_97">
    <path d="M 411.574032 450.72 
L 415.503609 450.72 
L 415.503609 393.233609 
L 411.574032 393.233609 
z
" clip-path="url(#p42be29a4dd)" style="fill: #ff7f0e"/>
   </g>
   <g id="patch_98">
    <path d="M 427.292342 450.72 
L 431.221919 450.72 
L 431.221919 385.735385 
L 427.292342 385.735385 
z
" clip-path="url(#p42be29a4dd)" style="fill: #ff7f0e"/>
   </g>
   <g id="patch_99">
    <path d="M 443.010651 450.72 
L 446.940229 450.72 
L 446.940229 425.725917 
L 443.010651 425.725917 
z
" clip-path="url(#p42be29a4dd)" style="fill: #ff7f0e"/>
   </g>
   <g id="patch_100">
    <path d="M 458.728961 450.72 
L 462.658539 450.72 
L 462.658539 353.243077 
L 458.728961 353.243077 
z
" clip-path="url(#p42be29a4dd)" style="fill: #ff7f0e"/>
   </g>
   <g id="patch_101">
    <path d="M 474.447271 450.72 
L 478.376849 450.72 
L 478.376849 363.24071 
L 474.447271 363.24071 
z
" clip-path="url(#p42be29a4dd)" style="fill: #ff7f0e"/>
   </g>
   <g id="patch_102">
    <path d="M 490.165581 450.72 
L 494.095158 450.72 
L 494.095158 450.72 
L 490.165581 450.72 
z
" clip-path="url(#p42be29a4dd)" style="fill: #ff7f0e"/>
   </g>
   <g id="patch_103">
    <path d="M 505.883891 450.72 
L 509.813468 450.72 
L 509.813468 378.23716 
L 505.883891 378.23716 
z
" clip-path="url(#p42be29a4dd)" style="fill: #ff7f0e"/>
   </g>
   <g id="patch_104">
    <path d="M 521.602201 450.72 
L 525.531778 450.72 
L 525.531778 398.232426 
L 521.602201 398.232426 
z
" clip-path="url(#p42be29a4dd)" style="fill: #ff7f0e"/>
   </g>
   <g id="patch_105">
    <path d="M 537.320511 450.72 
L 541.250088 450.72 
L 541.250088 433.224142 
L 537.320511 433.224142 
z
" clip-path="url(#p42be29a4dd)" style="fill: #ff7f0e"/>
   </g>
   <g id="patch_106">
    <path d="M 553.03882 450.72 
L 556.968398 450.72 
L 556.968398 435.72355 
L 553.03882 435.72355 
z
" clip-path="url(#p42be29a4dd)" style="fill: #ff7f0e"/>
   </g>
   <g id="patch_107">
    <path d="M 568.75713 450.72 
L 572.686708 450.72 
L 572.686708 438.222959 
L 568.75713 438.222959 
z
" clip-path="url(#p42be29a4dd)" style="fill: #ff7f0e"/>
   </g>
   <g id="patch_108">
    <path d="M 584.47544 450.72 
L 588.405018 450.72 
L 588.405018 435.72355 
L 584.47544 435.72355 
z
" clip-path="url(#p42be29a4dd)" style="fill: #ff7f0e"/>
   </g>
   <g id="patch_109">
    <path d="M 600.19375 450.72 
L 604.123327 450.72 
L 604.123327 440.722367 
L 600.19375 440.722367 
z
" clip-path="url(#p42be29a4dd)" style="fill: #ff7f0e"/>
   </g>
   <g id="patch_110">
    <path d="M 615.91206 450.72 
L 619.841637 450.72 
L 619.841637 405.730651 
L 615.91206 405.730651 
z
" clip-path="url(#p42be29a4dd)" style="fill: #ff7f0e"/>
   </g>
   <g id="patch_111">
    <path d="M 631.63037 450.72 
L 635.559947 450.72 
L 635.559947 450.72 
L 631.63037 450.72 
z
" clip-path="url(#p42be29a4dd)" style="fill: #ff7f0e"/>
   </g>
   <g id="patch_112">
    <path d="M 647.34868 450.72 
L 651.278257 450.72 
L 651.278257 373.238343 
L 647.34868 373.238343 
z
" clip-path="url(#p42be29a4dd)" style="fill: #ff7f0e"/>
   </g>
   <g id="patch_113">
    <path d="M 663.066989 450.72 
L 666.996567 450.72 
L 666.996567 450.72 
L 663.066989 450.72 
z
" clip-path="url(#p42be29a4dd)" style="fill: #ff7f0e"/>
   </g>
   <g id="patch_114">
    <path d="M 678.785299 450.72 
L 682.714877 450.72 
L 682.714877 433.224142 
L 678.785299 433.224142 
z
" clip-path="url(#p42be29a4dd)" style="fill: #ff7f0e"/>
   </g>
   <g id="patch_115">
    <path d="M 694.503609 450.72 
L 698.433187 450.72 
L 698.433187 93.304615 
L 694.503609 93.304615 
z
" clip-path="url(#p42be29a4dd)" style="fill: #ff7f0e"/>
   </g>
   <g id="patch_116">
    <path d="M 710.221919 450.72 
L 714.151496 450.72 
L 714.151496 440.722367 
L 710.221919 440.722367 
z
" clip-path="url(#p42be29a4dd)" style="fill: #ff7f0e"/>
   </g>
   <g id="patch_117">
    <path d="M 725.940229 450.72 
L 729.869806 450.72 
L 729.869806 28.32 
L 725.940229 28.32 
z
" clip-path="url(#p42be29a4dd)" style="fill: #ff7f0e"/>
   </g>
   <g id="patch_118">
    <path d="M 741.658539 450.72 
L 745.588116 450.72 
L 745.588116 438.222959 
L 741.658539 438.222959 
z
" clip-path="url(#p42be29a4dd)" style="fill: #ff7f0e"/>
   </g>
   <g id="patch_119">
    <path d="M 757.376849 450.72 
L 761.306426 450.72 
L 761.306426 428.225325 
L 757.376849 428.225325 
z
" clip-path="url(#p42be29a4dd)" style="fill: #ff7f0e"/>
   </g>
   <g id="patch_120">
    <path d="M 773.095158 450.72 
L 777.024736 450.72 
L 777.024736 440.722367 
L 773.095158 440.722367 
z
" clip-path="url(#p42be29a4dd)" style="fill: #ff7f0e"/>
   </g>
   <g id="patch_121">
    <path d="M 788.813468 450.72 
L 792.743046 450.72 
L 792.743046 450.72 
L 788.813468 450.72 
z
" clip-path="url(#p42be29a4dd)" style="fill: #ff7f0e"/>
   </g>
   <g id="patch_122">
    <path d="M 804.531778 450.72 
L 808.461356 450.72 
L 808.461356 428.225325 
L 804.531778 428.225325 
z
" clip-path="url(#p42be29a4dd)" style="fill: #ff7f0e"/>
   </g>
   <g id="patch_123">
    <path d="M 820.250088 450.72 
L 824.179665 450.72 
L 824.179665 443.221775 
L 820.250088 443.221775 
z
" clip-path="url(#p42be29a4dd)" style="fill: #ff7f0e"/>
   </g>
   <g id="patch_124">
    <path d="M 835.968398 450.72 
L 839.897975 450.72 
L 839.897975 450.72 
L 835.968398 450.72 
z
" clip-path="url(#p42be29a4dd)" style="fill: #ff7f0e"/>
   </g>
   <g id="patch_125">
    <path d="M 851.686708 450.72 
L 855.616285 450.72 
L 855.616285 438.222959 
L 851.686708 438.222959 
z
" clip-path="url(#p42be29a4dd)" style="fill: #ff7f0e"/>
   </g>
   <g id="patch_126">
    <path d="M 867.405018 450.72 
L 871.334595 450.72 
L 871.334595 445.721183 
L 867.405018 445.721183 
z
" clip-path="url(#p42be29a4dd)" style="fill: #ff7f0e"/>
   </g>
   <g id="patch_127">
    <path d="M 883.123327 450.72 
L 887.052905 450.72 
L 887.052905 415.728284 
L 883.123327 415.728284 
z
" clip-path="url(#p42be29a4dd)" style="fill: #ff7f0e"/>
   </g>
   <g id="patch_128">
    <path d="M 898.841637 450.72 
L 902.771215 450.72 
L 902.771215 435.72355 
L 898.841637 435.72355 
z
" clip-path="url(#p42be29a4dd)" style="fill: #ff7f0e"/>
   </g>
   <g id="patch_129">
    <path d="M 914.559947 450.72 
L 918.489525 450.72 
L 918.489525 445.721183 
L 914.559947 445.721183 
z
" clip-path="url(#p42be29a4dd)" style="fill: #ff7f0e"/>
   </g>
   <g id="patch_130">
    <path d="M 930.278257 450.72 
L 934.207835 450.72 
L 934.207835 450.72 
L 930.278257 450.72 
z
" clip-path="url(#p42be29a4dd)" style="fill: #ff7f0e"/>
   </g>
   <g id="patch_131">
    <path d="M 945.996567 450.72 
L 949.926144 450.72 
L 949.926144 418.227692 
L 945.996567 418.227692 
z
" clip-path="url(#p42be29a4dd)" style="fill: #ff7f0e"/>
   </g>
   <g id="patch_132">
    <path d="M 961.714877 450.72 
L 965.644454 450.72 
L 965.644454 288.258462 
L 961.714877 288.258462 
z
" clip-path="url(#p42be29a4dd)" style="fill: #ff7f0e"/>
   </g>
   <g id="patch_133">
    <path d="M 977.433187 450.72 
L 981.362764 450.72 
L 981.362764 445.721183 
L 977.433187 445.721183 
z
" clip-path="url(#p42be29a4dd)" style="fill: #ff7f0e"/>
   </g>
   <g id="patch_134">
    <path d="M 993.151496 450.72 
L 997.081074 450.72 
L 997.081074 440.722367 
L 993.151496 440.722367 
z
" clip-path="url(#p42be29a4dd)" style="fill: #ff7f0e"/>
   </g>
   <g id="patch_135">
    <path d="M 1008.869806 450.72 
L 1012.799384 450.72 
L 1012.799384 450.72 
L 1008.869806 450.72 
z
" clip-path="url(#p42be29a4dd)" style="fill: #ff7f0e"/>
   </g>
   <g id="patch_136">
    <path d="M 1024.588116 450.72 
L 1028.517694 450.72 
L 1028.517694 450.72 
L 1024.588116 450.72 
z
" clip-path="url(#p42be29a4dd)" style="fill: #ff7f0e"/>
   </g>
   <g id="patch_137">
    <path d="M 1040.306426 450.72 
L 1044.236004 450.72 
L 1044.236004 433.224142 
L 1040.306426 433.224142 
z
" clip-path="url(#p42be29a4dd)" style="fill: #ff7f0e"/>
   </g>
   <g id="patch_138">
    <path d="M 1056.024736 450.72 
L 1059.954313 450.72 
L 1059.954313 438.222959 
L 1056.024736 438.222959 
z
" clip-path="url(#p42be29a4dd)" style="fill: #ff7f0e"/>
   </g>
   <g id="patch_139">
    <path d="M 1071.743046 450.72 
L 1075.672623 450.72 
L 1075.672623 445.721183 
L 1071.743046 445.721183 
z
" clip-path="url(#p42be29a4dd)" style="fill: #ff7f0e"/>
   </g>
   <g id="patch_140">
    <path d="M 1087.461356 450.72 
L 1091.390933 450.72 
L 1091.390933 450.72 
L 1087.461356 450.72 
z
" clip-path="url(#p42be29a4dd)" style="fill: #ff7f0e"/>
   </g>
   <g id="patch_141">
    <path d="M 1103.179665 450.72 
L 1107.109243 450.72 
L 1107.109243 440.722367 
L 1103.179665 440.722367 
z
" clip-path="url(#p42be29a4dd)" style="fill: #ff7f0e"/>
   </g>
   <g id="patch_142">
    <path d="M 1118.897975 450.72 
L 1122.827553 450.72 
L 1122.827553 450.72 
L 1118.897975 450.72 
z
" clip-path="url(#p42be29a4dd)" style="fill: #ff7f0e"/>
   </g>
   <g id="patch_143">
    <path d="M 1134.616285 450.72 
L 1138.545863 450.72 
L 1138.545863 450.72 
L 1134.616285 450.72 
z
" clip-path="url(#p42be29a4dd)" style="fill: #ff7f0e"/>
   </g>
   <g id="patch_144">
    <path d="M 1150.334595 450.72 
L 1154.264173 450.72 
L 1154.264173 450.72 
L 1150.334595 450.72 
z
" clip-path="url(#p42be29a4dd)" style="fill: #ff7f0e"/>
   </g>
   <g id="matplotlib.axis_1">
    <g id="xtick_1">
     <g id="line2d_1">
      <defs>
       <path id="m9f1298bb50" d="M 0 0 
L 0 3.5 
" style="stroke: #000000; stroke-width: 0.8"/>
      </defs>
      <g>
       <use xlink:href="#m9f1298bb50" x="50.052905" y="450.72" style="stroke: #000000; stroke-width: 0.8"/>
      </g>
     </g>
     <g id="text_1">
      <!-- 1 -->
      <g transform="translate(52.122436 462.491875) rotate(-90) scale(0.075 -0.075)">
       <defs>
        <path id="DejaVuSans-31" d="M 794 531 
L 1825 531 
L 1825 4091 
L 703 3866 
L 703 4441 
L 1819 4666 
L 2450 4666 
L 2450 531 
L 3481 531 
L 3481 0 
L 794 0 
L 794 531 
z
" transform="scale(0.015625)"/>
       </defs>
       <use xlink:href="#DejaVuSans-31"/>
      </g>
     </g>
    </g>
    <g id="xtick_2">
     <g id="line2d_2">
      <g>
       <use xlink:href="#m9f1298bb50" x="65.771215" y="450.72" style="stroke: #000000; stroke-width: 0.8"/>
      </g>
     </g>
     <g id="text_2">
      <!-- 2 -->
      <g transform="translate(67.840746 462.491875) rotate(-90) scale(0.075 -0.075)">
       <defs>
        <path id="DejaVuSans-32" d="M 1228 531 
L 3431 531 
L 3431 0 
L 469 0 
L 469 531 
Q 828 903 1448 1529 
Q 2069 2156 2228 2338 
Q 2531 2678 2651 2914 
Q 2772 3150 2772 3378 
Q 2772 3750 2511 3984 
Q 2250 4219 1831 4219 
Q 1534 4219 1204 4116 
Q 875 4013 500 3803 
L 500 4441 
Q 881 4594 1212 4672 
Q 1544 4750 1819 4750 
Q 2544 4750 2975 4387 
Q 3406 4025 3406 3419 
Q 3406 3131 3298 2873 
Q 3191 2616 2906 2266 
Q 2828 2175 2409 1742 
Q 1991 1309 1228 531 
z
" transform="scale(0.015625)"/>
       </defs>
       <use xlink:href="#DejaVuSans-32"/>
      </g>
     </g>
    </g>
    <g id="xtick_3">
     <g id="line2d_3">
      <g>
       <use xlink:href="#m9f1298bb50" x="81.489525" y="450.72" style="stroke: #000000; stroke-width: 0.8"/>
      </g>
     </g>
     <g id="text_3">
      <!-- 3 -->
      <g transform="translate(83.559056 462.491875) rotate(-90) scale(0.075 -0.075)">
       <defs>
        <path id="DejaVuSans-33" d="M 2597 2516 
Q 3050 2419 3304 2112 
Q 3559 1806 3559 1356 
Q 3559 666 3084 287 
Q 2609 -91 1734 -91 
Q 1441 -91 1130 -33 
Q 819 25 488 141 
L 488 750 
Q 750 597 1062 519 
Q 1375 441 1716 441 
Q 2309 441 2620 675 
Q 2931 909 2931 1356 
Q 2931 1769 2642 2001 
Q 2353 2234 1838 2234 
L 1294 2234 
L 1294 2753 
L 1863 2753 
Q 2328 2753 2575 2939 
Q 2822 3125 2822 3475 
Q 2822 3834 2567 4026 
Q 2313 4219 1838 4219 
Q 1578 4219 1281 4162 
Q 984 4106 628 3988 
L 628 4550 
Q 988 4650 1302 4700 
Q 1616 4750 1894 4750 
Q 2613 4750 3031 4423 
Q 3450 4097 3450 3541 
Q 3450 3153 3228 2886 
Q 3006 2619 2597 2516 
z
" transform="scale(0.015625)"/>
       </defs>
       <use xlink:href="#DejaVuSans-33"/>
      </g>
     </g>
    </g>
    <g id="xtick_4">
     <g id="line2d_4">
      <g>
       <use xlink:href="#m9f1298bb50" x="97.207835" y="450.72" style="stroke: #000000; stroke-width: 0.8"/>
      </g>
     </g>
     <g id="text_4">
      <!-- 4 -->
      <g transform="translate(99.277366 462.491875) rotate(-90) scale(0.075 -0.075)">
       <defs>
        <path id="DejaVuSans-34" d="M 2419 4116 
L 825 1625 
L 2419 1625 
L 2419 4116 
z
M 2253 4666 
L 3047 4666 
L 3047 1625 
L 3713 1625 
L 3713 1100 
L 3047 1100 
L 3047 0 
L 2419 0 
L 2419 1100 
L 313 1100 
L 313 1709 
L 2253 4666 
z
" transform="scale(0.015625)"/>
       </defs>
       <use xlink:href="#DejaVuSans-34"/>
      </g>
     </g>
    </g>
    <g id="xtick_5">
     <g id="line2d_5">
      <g>
       <use xlink:href="#m9f1298bb50" x="112.926144" y="450.72" style="stroke: #000000; stroke-width: 0.8"/>
      </g>
     </g>
     <g id="text_5">
      <!-- 5 -->
      <g transform="translate(114.995676 462.491875) rotate(-90) scale(0.075 -0.075)">
       <defs>
        <path id="DejaVuSans-35" d="M 691 4666 
L 3169 4666 
L 3169 4134 
L 1269 4134 
L 1269 2991 
Q 1406 3038 1543 3061 
Q 1681 3084 1819 3084 
Q 2600 3084 3056 2656 
Q 3513 2228 3513 1497 
Q 3513 744 3044 326 
Q 2575 -91 1722 -91 
Q 1428 -91 1123 -41 
Q 819 9 494 109 
L 494 744 
Q 775 591 1075 516 
Q 1375 441 1709 441 
Q 2250 441 2565 725 
Q 2881 1009 2881 1497 
Q 2881 1984 2565 2268 
Q 2250 2553 1709 2553 
Q 1456 2553 1204 2497 
Q 953 2441 691 2322 
L 691 4666 
z
" transform="scale(0.015625)"/>
       </defs>
       <use xlink:href="#DejaVuSans-35"/>
      </g>
     </g>
    </g>
    <g id="xtick_6">
     <g id="line2d_6">
      <g>
       <use xlink:href="#m9f1298bb50" x="128.644454" y="450.72" style="stroke: #000000; stroke-width: 0.8"/>
      </g>
     </g>
     <g id="text_6">
      <!-- 6 -->
      <g transform="translate(130.713985 462.491875) rotate(-90) scale(0.075 -0.075)">
       <defs>
        <path id="DejaVuSans-36" d="M 2113 2584 
Q 1688 2584 1439 2293 
Q 1191 2003 1191 1497 
Q 1191 994 1439 701 
Q 1688 409 2113 409 
Q 2538 409 2786 701 
Q 3034 994 3034 1497 
Q 3034 2003 2786 2293 
Q 2538 2584 2113 2584 
z
M 3366 4563 
L 3366 3988 
Q 3128 4100 2886 4159 
Q 2644 4219 2406 4219 
Q 1781 4219 1451 3797 
Q 1122 3375 1075 2522 
Q 1259 2794 1537 2939 
Q 1816 3084 2150 3084 
Q 2853 3084 3261 2657 
Q 3669 2231 3669 1497 
Q 3669 778 3244 343 
Q 2819 -91 2113 -91 
Q 1303 -91 875 529 
Q 447 1150 447 2328 
Q 447 3434 972 4092 
Q 1497 4750 2381 4750 
Q 2619 4750 2861 4703 
Q 3103 4656 3366 4563 
z
" transform="scale(0.015625)"/>
       </defs>
       <use xlink:href="#DejaVuSans-36"/>
      </g>
     </g>
    </g>
    <g id="xtick_7">
     <g id="line2d_7">
      <g>
       <use xlink:href="#m9f1298bb50" x="144.362764" y="450.72" style="stroke: #000000; stroke-width: 0.8"/>
      </g>
     </g>
     <g id="text_7">
      <!-- 7 -->
      <g transform="translate(146.432295 462.491875) rotate(-90) scale(0.075 -0.075)">
       <defs>
        <path id="DejaVuSans-37" d="M 525 4666 
L 3525 4666 
L 3525 4397 
L 1831 0 
L 1172 0 
L 2766 4134 
L 525 4134 
L 525 4666 
z
" transform="scale(0.015625)"/>
       </defs>
       <use xlink:href="#DejaVuSans-37"/>
      </g>
     </g>
    </g>
    <g id="xtick_8">
     <g id="line2d_8">
      <g>
       <use xlink:href="#m9f1298bb50" x="160.081074" y="450.72" style="stroke: #000000; stroke-width: 0.8"/>
      </g>
     </g>
     <g id="text_8">
      <!-- 8 -->
      <g transform="translate(162.150605 462.491875) rotate(-90) scale(0.075 -0.075)">
       <defs>
        <path id="DejaVuSans-38" d="M 2034 2216 
Q 1584 2216 1326 1975 
Q 1069 1734 1069 1313 
Q 1069 891 1326 650 
Q 1584 409 2034 409 
Q 2484 409 2743 651 
Q 3003 894 3003 1313 
Q 3003 1734 2745 1975 
Q 2488 2216 2034 2216 
z
M 1403 2484 
Q 997 2584 770 2862 
Q 544 3141 544 3541 
Q 544 4100 942 4425 
Q 1341 4750 2034 4750 
Q 2731 4750 3128 4425 
Q 3525 4100 3525 3541 
Q 3525 3141 3298 2862 
Q 3072 2584 2669 2484 
Q 3125 2378 3379 2068 
Q 3634 1759 3634 1313 
Q 3634 634 3220 271 
Q 2806 -91 2034 -91 
Q 1263 -91 848 271 
Q 434 634 434 1313 
Q 434 1759 690 2068 
Q 947 2378 1403 2484 
z
M 1172 3481 
Q 1172 3119 1398 2916 
Q 1625 2713 2034 2713 
Q 2441 2713 2670 2916 
Q 2900 3119 2900 3481 
Q 2900 3844 2670 4047 
Q 2441 4250 2034 4250 
Q 1625 4250 1398 4047 
Q 1172 3844 1172 3481 
z
" transform="scale(0.015625)"/>
       </defs>
       <use xlink:href="#DejaVuSans-38"/>
      </g>
     </g>
    </g>
    <g id="xtick_9">
     <g id="line2d_9">
      <g>
       <use xlink:href="#m9f1298bb50" x="175.799384" y="450.72" style="stroke: #000000; stroke-width: 0.8"/>
      </g>
     </g>
     <g id="text_9">
      <!-- 9 -->
      <g transform="translate(177.868915 462.491875) rotate(-90) scale(0.075 -0.075)">
       <defs>
        <path id="DejaVuSans-39" d="M 703 97 
L 703 672 
Q 941 559 1184 500 
Q 1428 441 1663 441 
Q 2288 441 2617 861 
Q 2947 1281 2994 2138 
Q 2813 1869 2534 1725 
Q 2256 1581 1919 1581 
Q 1219 1581 811 2004 
Q 403 2428 403 3163 
Q 403 3881 828 4315 
Q 1253 4750 1959 4750 
Q 2769 4750 3195 4129 
Q 3622 3509 3622 2328 
Q 3622 1225 3098 567 
Q 2575 -91 1691 -91 
Q 1453 -91 1209 -44 
Q 966 3 703 97 
z
M 1959 2075 
Q 2384 2075 2632 2365 
Q 2881 2656 2881 3163 
Q 2881 3666 2632 3958 
Q 2384 4250 1959 4250 
Q 1534 4250 1286 3958 
Q 1038 3666 1038 3163 
Q 1038 2656 1286 2365 
Q 1534 2075 1959 2075 
z
" transform="scale(0.015625)"/>
       </defs>
       <use xlink:href="#DejaVuSans-39"/>
      </g>
     </g>
    </g>
    <g id="xtick_10">
     <g id="line2d_10">
      <g>
       <use xlink:href="#m9f1298bb50" x="191.517694" y="450.72" style="stroke: #000000; stroke-width: 0.8"/>
      </g>
     </g>
     <g id="text_10">
      <!-- 10 -->
      <g transform="translate(193.587225 467.26375) rotate(-90) scale(0.075 -0.075)">
       <defs>
        <path id="DejaVuSans-30" d="M 2034 4250 
Q 1547 4250 1301 3770 
Q 1056 3291 1056 2328 
Q 1056 1369 1301 889 
Q 1547 409 2034 409 
Q 2525 409 2770 889 
Q 3016 1369 3016 2328 
Q 3016 3291 2770 3770 
Q 2525 4250 2034 4250 
z
M 2034 4750 
Q 2819 4750 3233 4129 
Q 3647 3509 3647 2328 
Q 3647 1150 3233 529 
Q 2819 -91 2034 -91 
Q 1250 -91 836 529 
Q 422 1150 422 2328 
Q 422 3509 836 4129 
Q 1250 4750 2034 4750 
z
" transform="scale(0.015625)"/>
       </defs>
       <use xlink:href="#DejaVuSans-31"/>
       <use xlink:href="#DejaVuSans-30" transform="translate(63.623047 0)"/>
      </g>
     </g>
    </g>
    <g id="xtick_11">
     <g id="line2d_11">
      <g>
       <use xlink:href="#m9f1298bb50" x="207.236004" y="450.72" style="stroke: #000000; stroke-width: 0.8"/>
      </g>
     </g>
     <g id="text_11">
      <!-- 11 -->
      <g transform="translate(209.305535 467.26375) rotate(-90) scale(0.075 -0.075)">
       <use xlink:href="#DejaVuSans-31"/>
       <use xlink:href="#DejaVuSans-31" transform="translate(63.623047 0)"/>
      </g>
     </g>
    </g>
    <g id="xtick_12">
     <g id="line2d_12">
      <g>
       <use xlink:href="#m9f1298bb50" x="222.954313" y="450.72" style="stroke: #000000; stroke-width: 0.8"/>
      </g>
     </g>
     <g id="text_12">
      <!-- 12 -->
      <g transform="translate(225.023845 467.26375) rotate(-90) scale(0.075 -0.075)">
       <use xlink:href="#DejaVuSans-31"/>
       <use xlink:href="#DejaVuSans-32" transform="translate(63.623047 0)"/>
      </g>
     </g>
    </g>
    <g id="xtick_13">
     <g id="line2d_13">
      <g>
       <use xlink:href="#m9f1298bb50" x="238.672623" y="450.72" style="stroke: #000000; stroke-width: 0.8"/>
      </g>
     </g>
     <g id="text_13">
      <!-- 13 -->
      <g transform="translate(240.742154 467.26375) rotate(-90) scale(0.075 -0.075)">
       <use xlink:href="#DejaVuSans-31"/>
       <use xlink:href="#DejaVuSans-33" transform="translate(63.623047 0)"/>
      </g>
     </g>
    </g>
    <g id="xtick_14">
     <g id="line2d_14">
      <g>
       <use xlink:href="#m9f1298bb50" x="254.390933" y="450.72" style="stroke: #000000; stroke-width: 0.8"/>
      </g>
     </g>
     <g id="text_14">
      <!-- 14 -->
      <g transform="translate(256.460464 467.26375) rotate(-90) scale(0.075 -0.075)">
       <use xlink:href="#DejaVuSans-31"/>
       <use xlink:href="#DejaVuSans-34" transform="translate(63.623047 0)"/>
      </g>
     </g>
    </g>
    <g id="xtick_15">
     <g id="line2d_15">
      <g>
       <use xlink:href="#m9f1298bb50" x="270.109243" y="450.72" style="stroke: #000000; stroke-width: 0.8"/>
      </g>
     </g>
     <g id="text_15">
      <!-- 15 -->
      <g transform="translate(272.178774 467.26375) rotate(-90) scale(0.075 -0.075)">
       <use xlink:href="#DejaVuSans-31"/>
       <use xlink:href="#DejaVuSans-35" transform="translate(63.623047 0)"/>
      </g>
     </g>
    </g>
    <g id="xtick_16">
     <g id="line2d_16">
      <g>
       <use xlink:href="#m9f1298bb50" x="285.827553" y="450.72" style="stroke: #000000; stroke-width: 0.8"/>
      </g>
     </g>
     <g id="text_16">
      <!-- 16 -->
      <g transform="translate(287.897084 467.26375) rotate(-90) scale(0.075 -0.075)">
       <use xlink:href="#DejaVuSans-31"/>
       <use xlink:href="#DejaVuSans-36" transform="translate(63.623047 0)"/>
      </g>
     </g>
    </g>
    <g id="xtick_17">
     <g id="line2d_17">
      <g>
       <use xlink:href="#m9f1298bb50" x="301.545863" y="450.72" style="stroke: #000000; stroke-width: 0.8"/>
      </g>
     </g>
     <g id="text_17">
      <!-- 17 -->
      <g transform="translate(303.615394 467.26375) rotate(-90) scale(0.075 -0.075)">
       <use xlink:href="#DejaVuSans-31"/>
       <use xlink:href="#DejaVuSans-37" transform="translate(63.623047 0)"/>
      </g>
     </g>
    </g>
    <g id="xtick_18">
     <g id="line2d_18">
      <g>
       <use xlink:href="#m9f1298bb50" x="317.264173" y="450.72" style="stroke: #000000; stroke-width: 0.8"/>
      </g>
     </g>
     <g id="text_18">
      <!-- 18 -->
      <g transform="translate(319.333704 467.26375) rotate(-90) scale(0.075 -0.075)">
       <use xlink:href="#DejaVuSans-31"/>
       <use xlink:href="#DejaVuSans-38" transform="translate(63.623047 0)"/>
      </g>
     </g>
    </g>
    <g id="xtick_19">
     <g id="line2d_19">
      <g>
       <use xlink:href="#m9f1298bb50" x="332.982482" y="450.72" style="stroke: #000000; stroke-width: 0.8"/>
      </g>
     </g>
     <g id="text_19">
      <!-- 19 -->
      <g transform="translate(335.052014 467.26375) rotate(-90) scale(0.075 -0.075)">
       <use xlink:href="#DejaVuSans-31"/>
       <use xlink:href="#DejaVuSans-39" transform="translate(63.623047 0)"/>
      </g>
     </g>
    </g>
    <g id="xtick_20">
     <g id="line2d_20">
      <g>
       <use xlink:href="#m9f1298bb50" x="348.700792" y="450.72" style="stroke: #000000; stroke-width: 0.8"/>
      </g>
     </g>
     <g id="text_20">
      <!-- 20 -->
      <g transform="translate(350.770324 467.26375) rotate(-90) scale(0.075 -0.075)">
       <use xlink:href="#DejaVuSans-32"/>
       <use xlink:href="#DejaVuSans-30" transform="translate(63.623047 0)"/>
      </g>
     </g>
    </g>
    <g id="xtick_21">
     <g id="line2d_21">
      <g>
       <use xlink:href="#m9f1298bb50" x="364.419102" y="450.72" style="stroke: #000000; stroke-width: 0.8"/>
      </g>
     </g>
     <g id="text_21">
      <!-- 21 -->
      <g transform="translate(366.488633 467.26375) rotate(-90) scale(0.075 -0.075)">
       <use xlink:href="#DejaVuSans-32"/>
       <use xlink:href="#DejaVuSans-31" transform="translate(63.623047 0)"/>
      </g>
     </g>
    </g>
    <g id="xtick_22">
     <g id="line2d_22">
      <g>
       <use xlink:href="#m9f1298bb50" x="380.137412" y="450.72" style="stroke: #000000; stroke-width: 0.8"/>
      </g>
     </g>
     <g id="text_22">
      <!-- 22 -->
      <g transform="translate(382.206943 467.26375) rotate(-90) scale(0.075 -0.075)">
       <use xlink:href="#DejaVuSans-32"/>
       <use xlink:href="#DejaVuSans-32" transform="translate(63.623047 0)"/>
      </g>
     </g>
    </g>
    <g id="xtick_23">
     <g id="line2d_23">
      <g>
       <use xlink:href="#m9f1298bb50" x="395.855722" y="450.72" style="stroke: #000000; stroke-width: 0.8"/>
      </g>
     </g>
     <g id="text_23">
      <!-- 23 -->
      <g transform="translate(397.925253 467.26375) rotate(-90) scale(0.075 -0.075)">
       <use xlink:href="#DejaVuSans-32"/>
       <use xlink:href="#DejaVuSans-33" transform="translate(63.623047 0)"/>
      </g>
     </g>
    </g>
    <g id="xtick_24">
     <g id="line2d_24">
      <g>
       <use xlink:href="#m9f1298bb50" x="411.574032" y="450.72" style="stroke: #000000; stroke-width: 0.8"/>
      </g>
     </g>
     <g id="text_24">
      <!-- 24 -->
      <g transform="translate(413.643563 467.26375) rotate(-90) scale(0.075 -0.075)">
       <use xlink:href="#DejaVuSans-32"/>
       <use xlink:href="#DejaVuSans-34" transform="translate(63.623047 0)"/>
      </g>
     </g>
    </g>
    <g id="xtick_25">
     <g id="line2d_25">
      <g>
       <use xlink:href="#m9f1298bb50" x="427.292342" y="450.72" style="stroke: #000000; stroke-width: 0.8"/>
      </g>
     </g>
     <g id="text_25">
      <!-- 25 -->
      <g transform="translate(429.361873 467.26375) rotate(-90) scale(0.075 -0.075)">
       <use xlink:href="#DejaVuSans-32"/>
       <use xlink:href="#DejaVuSans-35" transform="translate(63.623047 0)"/>
      </g>
     </g>
    </g>
    <g id="xtick_26">
     <g id="line2d_26">
      <g>
       <use xlink:href="#m9f1298bb50" x="443.010651" y="450.72" style="stroke: #000000; stroke-width: 0.8"/>
      </g>
     </g>
     <g id="text_26">
      <!-- 26 -->
      <g transform="translate(445.080183 467.26375) rotate(-90) scale(0.075 -0.075)">
       <use xlink:href="#DejaVuSans-32"/>
       <use xlink:href="#DejaVuSans-36" transform="translate(63.623047 0)"/>
      </g>
     </g>
    </g>
    <g id="xtick_27">
     <g id="line2d_27">
      <g>
       <use xlink:href="#m9f1298bb50" x="458.728961" y="450.72" style="stroke: #000000; stroke-width: 0.8"/>
      </g>
     </g>
     <g id="text_27">
      <!-- 27 -->
      <g transform="translate(460.798493 467.26375) rotate(-90) scale(0.075 -0.075)">
       <use xlink:href="#DejaVuSans-32"/>
       <use xlink:href="#DejaVuSans-37" transform="translate(63.623047 0)"/>
      </g>
     </g>
    </g>
    <g id="xtick_28">
     <g id="line2d_28">
      <g>
       <use xlink:href="#m9f1298bb50" x="474.447271" y="450.72" style="stroke: #000000; stroke-width: 0.8"/>
      </g>
     </g>
     <g id="text_28">
      <!-- 28 -->
      <g transform="translate(476.516802 467.26375) rotate(-90) scale(0.075 -0.075)">
       <use xlink:href="#DejaVuSans-32"/>
       <use xlink:href="#DejaVuSans-38" transform="translate(63.623047 0)"/>
      </g>
     </g>
    </g>
    <g id="xtick_29">
     <g id="line2d_29">
      <g>
       <use xlink:href="#m9f1298bb50" x="490.165581" y="450.72" style="stroke: #000000; stroke-width: 0.8"/>
      </g>
     </g>
     <g id="text_29">
      <!-- 29 -->
      <g transform="translate(492.235112 467.26375) rotate(-90) scale(0.075 -0.075)">
       <use xlink:href="#DejaVuSans-32"/>
       <use xlink:href="#DejaVuSans-39" transform="translate(63.623047 0)"/>
      </g>
     </g>
    </g>
    <g id="xtick_30">
     <g id="line2d_30">
      <g>
       <use xlink:href="#m9f1298bb50" x="505.883891" y="450.72" style="stroke: #000000; stroke-width: 0.8"/>
      </g>
     </g>
     <g id="text_30">
      <!-- 30 -->
      <g transform="translate(507.953422 467.26375) rotate(-90) scale(0.075 -0.075)">
       <use xlink:href="#DejaVuSans-33"/>
       <use xlink:href="#DejaVuSans-30" transform="translate(63.623047 0)"/>
      </g>
     </g>
    </g>
    <g id="xtick_31">
     <g id="line2d_31">
      <g>
       <use xlink:href="#m9f1298bb50" x="521.602201" y="450.72" style="stroke: #000000; stroke-width: 0.8"/>
      </g>
     </g>
     <g id="text_31">
      <!-- 31 -->
      <g transform="translate(523.671732 467.26375) rotate(-90) scale(0.075 -0.075)">
       <use xlink:href="#DejaVuSans-33"/>
       <use xlink:href="#DejaVuSans-31" transform="translate(63.623047 0)"/>
      </g>
     </g>
    </g>
    <g id="xtick_32">
     <g id="line2d_32">
      <g>
       <use xlink:href="#m9f1298bb50" x="537.320511" y="450.72" style="stroke: #000000; stroke-width: 0.8"/>
      </g>
     </g>
     <g id="text_32">
      <!-- 32 -->
      <g transform="translate(539.390042 467.26375) rotate(-90) scale(0.075 -0.075)">
       <use xlink:href="#DejaVuSans-33"/>
       <use xlink:href="#DejaVuSans-32" transform="translate(63.623047 0)"/>
      </g>
     </g>
    </g>
    <g id="xtick_33">
     <g id="line2d_33">
      <g>
       <use xlink:href="#m9f1298bb50" x="553.03882" y="450.72" style="stroke: #000000; stroke-width: 0.8"/>
      </g>
     </g>
     <g id="text_33">
      <!-- 33 -->
      <g transform="translate(555.108352 467.26375) rotate(-90) scale(0.075 -0.075)">
       <use xlink:href="#DejaVuSans-33"/>
       <use xlink:href="#DejaVuSans-33" transform="translate(63.623047 0)"/>
      </g>
     </g>
    </g>
    <g id="xtick_34">
     <g id="line2d_34">
      <g>
       <use xlink:href="#m9f1298bb50" x="568.75713" y="450.72" style="stroke: #000000; stroke-width: 0.8"/>
      </g>
     </g>
     <g id="text_34">
      <!-- 34 -->
      <g transform="translate(570.826662 467.26375) rotate(-90) scale(0.075 -0.075)">
       <use xlink:href="#DejaVuSans-33"/>
       <use xlink:href="#DejaVuSans-34" transform="translate(63.623047 0)"/>
      </g>
     </g>
    </g>
    <g id="xtick_35">
     <g id="line2d_35">
      <g>
       <use xlink:href="#m9f1298bb50" x="584.47544" y="450.72" style="stroke: #000000; stroke-width: 0.8"/>
      </g>
     </g>
     <g id="text_35">
      <!-- 35 -->
      <g transform="translate(586.544971 467.26375) rotate(-90) scale(0.075 -0.075)">
       <use xlink:href="#DejaVuSans-33"/>
       <use xlink:href="#DejaVuSans-35" transform="translate(63.623047 0)"/>
      </g>
     </g>
    </g>
    <g id="xtick_36">
     <g id="line2d_36">
      <g>
       <use xlink:href="#m9f1298bb50" x="600.19375" y="450.72" style="stroke: #000000; stroke-width: 0.8"/>
      </g>
     </g>
     <g id="text_36">
      <!-- 36 -->
      <g transform="translate(602.263281 467.26375) rotate(-90) scale(0.075 -0.075)">
       <use xlink:href="#DejaVuSans-33"/>
       <use xlink:href="#DejaVuSans-36" transform="translate(63.623047 0)"/>
      </g>
     </g>
    </g>
    <g id="xtick_37">
     <g id="line2d_37">
      <g>
       <use xlink:href="#m9f1298bb50" x="615.91206" y="450.72" style="stroke: #000000; stroke-width: 0.8"/>
      </g>
     </g>
     <g id="text_37">
      <!-- 37 -->
      <g transform="translate(617.981591 467.26375) rotate(-90) scale(0.075 -0.075)">
       <use xlink:href="#DejaVuSans-33"/>
       <use xlink:href="#DejaVuSans-37" transform="translate(63.623047 0)"/>
      </g>
     </g>
    </g>
    <g id="xtick_38">
     <g id="line2d_38">
      <g>
       <use xlink:href="#m9f1298bb50" x="631.63037" y="450.72" style="stroke: #000000; stroke-width: 0.8"/>
      </g>
     </g>
     <g id="text_38">
      <!-- 38 -->
      <g transform="translate(633.699901 467.26375) rotate(-90) scale(0.075 -0.075)">
       <use xlink:href="#DejaVuSans-33"/>
       <use xlink:href="#DejaVuSans-38" transform="translate(63.623047 0)"/>
      </g>
     </g>
    </g>
    <g id="xtick_39">
     <g id="line2d_39">
      <g>
       <use xlink:href="#m9f1298bb50" x="647.34868" y="450.72" style="stroke: #000000; stroke-width: 0.8"/>
      </g>
     </g>
     <g id="text_39">
      <!-- 39 -->
      <g transform="translate(649.418211 467.26375) rotate(-90) scale(0.075 -0.075)">
       <use xlink:href="#DejaVuSans-33"/>
       <use xlink:href="#DejaVuSans-39" transform="translate(63.623047 0)"/>
      </g>
     </g>
    </g>
    <g id="xtick_40">
     <g id="line2d_40">
      <g>
       <use xlink:href="#m9f1298bb50" x="663.066989" y="450.72" style="stroke: #000000; stroke-width: 0.8"/>
      </g>
     </g>
     <g id="text_40">
      <!-- 40 -->
      <g transform="translate(665.136521 467.26375) rotate(-90) scale(0.075 -0.075)">
       <use xlink:href="#DejaVuSans-34"/>
       <use xlink:href="#DejaVuSans-30" transform="translate(63.623047 0)"/>
      </g>
     </g>
    </g>
    <g id="xtick_41">
     <g id="line2d_41">
      <g>
       <use xlink:href="#m9f1298bb50" x="678.785299" y="450.72" style="stroke: #000000; stroke-width: 0.8"/>
      </g>
     </g>
     <g id="text_41">
      <!-- 41 -->
      <g transform="translate(680.854831 467.26375) rotate(-90) scale(0.075 -0.075)">
       <use xlink:href="#DejaVuSans-34"/>
       <use xlink:href="#DejaVuSans-31" transform="translate(63.623047 0)"/>
      </g>
     </g>
    </g>
    <g id="xtick_42">
     <g id="line2d_42">
      <g>
       <use xlink:href="#m9f1298bb50" x="694.503609" y="450.72" style="stroke: #000000; stroke-width: 0.8"/>
      </g>
     </g>
     <g id="text_42">
      <!-- 42 -->
      <g transform="translate(696.57314 467.26375) rotate(-90) scale(0.075 -0.075)">
       <use xlink:href="#DejaVuSans-34"/>
       <use xlink:href="#DejaVuSans-32" transform="translate(63.623047 0)"/>
      </g>
     </g>
    </g>
    <g id="xtick_43">
     <g id="line2d_43">
      <g>
       <use xlink:href="#m9f1298bb50" x="710.221919" y="450.72" style="stroke: #000000; stroke-width: 0.8"/>
      </g>
     </g>
     <g id="text_43">
      <!-- 43 -->
      <g transform="translate(712.29145 467.26375) rotate(-90) scale(0.075 -0.075)">
       <use xlink:href="#DejaVuSans-34"/>
       <use xlink:href="#DejaVuSans-33" transform="translate(63.623047 0)"/>
      </g>
     </g>
    </g>
    <g id="xtick_44">
     <g id="line2d_44">
      <g>
       <use xlink:href="#m9f1298bb50" x="725.940229" y="450.72" style="stroke: #000000; stroke-width: 0.8"/>
      </g>
     </g>
     <g id="text_44">
      <!-- 44 -->
      <g transform="translate(728.00976 467.26375) rotate(-90) scale(0.075 -0.075)">
       <use xlink:href="#DejaVuSans-34"/>
       <use xlink:href="#DejaVuSans-34" transform="translate(63.623047 0)"/>
      </g>
     </g>
    </g>
    <g id="xtick_45">
     <g id="line2d_45">
      <g>
       <use xlink:href="#m9f1298bb50" x="741.658539" y="450.72" style="stroke: #000000; stroke-width: 0.8"/>
      </g>
     </g>
     <g id="text_45">
      <!-- 45 -->
      <g transform="translate(743.72807 467.26375) rotate(-90) scale(0.075 -0.075)">
       <use xlink:href="#DejaVuSans-34"/>
       <use xlink:href="#DejaVuSans-35" transform="translate(63.623047 0)"/>
      </g>
     </g>
    </g>
    <g id="xtick_46">
     <g id="line2d_46">
      <g>
       <use xlink:href="#m9f1298bb50" x="757.376849" y="450.72" style="stroke: #000000; stroke-width: 0.8"/>
      </g>
     </g>
     <g id="text_46">
      <!-- 46 -->
      <g transform="translate(759.44638 467.26375) rotate(-90) scale(0.075 -0.075)">
       <use xlink:href="#DejaVuSans-34"/>
       <use xlink:href="#DejaVuSans-36" transform="translate(63.623047 0)"/>
      </g>
     </g>
    </g>
    <g id="xtick_47">
     <g id="line2d_47">
      <g>
       <use xlink:href="#m9f1298bb50" x="773.095158" y="450.72" style="stroke: #000000; stroke-width: 0.8"/>
      </g>
     </g>
     <g id="text_47">
      <!-- 47 -->
      <g transform="translate(775.16469 467.26375) rotate(-90) scale(0.075 -0.075)">
       <use xlink:href="#DejaVuSans-34"/>
       <use xlink:href="#DejaVuSans-37" transform="translate(63.623047 0)"/>
      </g>
     </g>
    </g>
    <g id="xtick_48">
     <g id="line2d_48">
      <g>
       <use xlink:href="#m9f1298bb50" x="788.813468" y="450.72" style="stroke: #000000; stroke-width: 0.8"/>
      </g>
     </g>
     <g id="text_48">
      <!-- 48 -->
      <g transform="translate(790.883 467.26375) rotate(-90) scale(0.075 -0.075)">
       <use xlink:href="#DejaVuSans-34"/>
       <use xlink:href="#DejaVuSans-38" transform="translate(63.623047 0)"/>
      </g>
     </g>
    </g>
    <g id="xtick_49">
     <g id="line2d_49">
      <g>
       <use xlink:href="#m9f1298bb50" x="804.531778" y="450.72" style="stroke: #000000; stroke-width: 0.8"/>
      </g>
     </g>
     <g id="text_49">
      <!-- 49 -->
      <g transform="translate(806.601309 467.26375) rotate(-90) scale(0.075 -0.075)">
       <use xlink:href="#DejaVuSans-34"/>
       <use xlink:href="#DejaVuSans-39" transform="translate(63.623047 0)"/>
      </g>
     </g>
    </g>
    <g id="xtick_50">
     <g id="line2d_50">
      <g>
       <use xlink:href="#m9f1298bb50" x="820.250088" y="450.72" style="stroke: #000000; stroke-width: 0.8"/>
      </g>
     </g>
     <g id="text_50">
      <!-- 50 -->
      <g transform="translate(822.319619 467.26375) rotate(-90) scale(0.075 -0.075)">
       <use xlink:href="#DejaVuSans-35"/>
       <use xlink:href="#DejaVuSans-30" transform="translate(63.623047 0)"/>
      </g>
     </g>
    </g>
    <g id="xtick_51">
     <g id="line2d_51">
      <g>
       <use xlink:href="#m9f1298bb50" x="835.968398" y="450.72" style="stroke: #000000; stroke-width: 0.8"/>
      </g>
     </g>
     <g id="text_51">
      <!-- 51 -->
      <g transform="translate(838.037929 467.26375) rotate(-90) scale(0.075 -0.075)">
       <use xlink:href="#DejaVuSans-35"/>
       <use xlink:href="#DejaVuSans-31" transform="translate(63.623047 0)"/>
      </g>
     </g>
    </g>
    <g id="xtick_52">
     <g id="line2d_52">
      <g>
       <use xlink:href="#m9f1298bb50" x="851.686708" y="450.72" style="stroke: #000000; stroke-width: 0.8"/>
      </g>
     </g>
     <g id="text_52">
      <!-- 52 -->
      <g transform="translate(853.756239 467.26375) rotate(-90) scale(0.075 -0.075)">
       <use xlink:href="#DejaVuSans-35"/>
       <use xlink:href="#DejaVuSans-32" transform="translate(63.623047 0)"/>
      </g>
     </g>
    </g>
    <g id="xtick_53">
     <g id="line2d_53">
      <g>
       <use xlink:href="#m9f1298bb50" x="867.405018" y="450.72" style="stroke: #000000; stroke-width: 0.8"/>
      </g>
     </g>
     <g id="text_53">
      <!-- 53 -->
      <g transform="translate(869.474549 467.26375) rotate(-90) scale(0.075 -0.075)">
       <use xlink:href="#DejaVuSans-35"/>
       <use xlink:href="#DejaVuSans-33" transform="translate(63.623047 0)"/>
      </g>
     </g>
    </g>
    <g id="xtick_54">
     <g id="line2d_54">
      <g>
       <use xlink:href="#m9f1298bb50" x="883.123327" y="450.72" style="stroke: #000000; stroke-width: 0.8"/>
      </g>
     </g>
     <g id="text_54">
      <!-- 54 -->
      <g transform="translate(885.192859 467.26375) rotate(-90) scale(0.075 -0.075)">
       <use xlink:href="#DejaVuSans-35"/>
       <use xlink:href="#DejaVuSans-34" transform="translate(63.623047 0)"/>
      </g>
     </g>
    </g>
    <g id="xtick_55">
     <g id="line2d_55">
      <g>
       <use xlink:href="#m9f1298bb50" x="898.841637" y="450.72" style="stroke: #000000; stroke-width: 0.8"/>
      </g>
     </g>
     <g id="text_55">
      <!-- 55 -->
      <g transform="translate(900.911169 467.26375) rotate(-90) scale(0.075 -0.075)">
       <use xlink:href="#DejaVuSans-35"/>
       <use xlink:href="#DejaVuSans-35" transform="translate(63.623047 0)"/>
      </g>
     </g>
    </g>
    <g id="xtick_56">
     <g id="line2d_56">
      <g>
       <use xlink:href="#m9f1298bb50" x="914.559947" y="450.72" style="stroke: #000000; stroke-width: 0.8"/>
      </g>
     </g>
     <g id="text_56">
      <!-- 56 -->
      <g transform="translate(916.629478 467.26375) rotate(-90) scale(0.075 -0.075)">
       <use xlink:href="#DejaVuSans-35"/>
       <use xlink:href="#DejaVuSans-36" transform="translate(63.623047 0)"/>
      </g>
     </g>
    </g>
    <g id="xtick_57">
     <g id="line2d_57">
      <g>
       <use xlink:href="#m9f1298bb50" x="930.278257" y="450.72" style="stroke: #000000; stroke-width: 0.8"/>
      </g>
     </g>
     <g id="text_57">
      <!-- 57 -->
      <g transform="translate(932.347788 467.26375) rotate(-90) scale(0.075 -0.075)">
       <use xlink:href="#DejaVuSans-35"/>
       <use xlink:href="#DejaVuSans-37" transform="translate(63.623047 0)"/>
      </g>
     </g>
    </g>
    <g id="xtick_58">
     <g id="line2d_58">
      <g>
       <use xlink:href="#m9f1298bb50" x="945.996567" y="450.72" style="stroke: #000000; stroke-width: 0.8"/>
      </g>
     </g>
     <g id="text_58">
      <!-- 58 -->
      <g transform="translate(948.066098 467.26375) rotate(-90) scale(0.075 -0.075)">
       <use xlink:href="#DejaVuSans-35"/>
       <use xlink:href="#DejaVuSans-38" transform="translate(63.623047 0)"/>
      </g>
     </g>
    </g>
    <g id="xtick_59">
     <g id="line2d_59">
      <g>
       <use xlink:href="#m9f1298bb50" x="961.714877" y="450.72" style="stroke: #000000; stroke-width: 0.8"/>
      </g>
     </g>
     <g id="text_59">
      <!-- 59 -->
      <g transform="translate(963.784408 467.26375) rotate(-90) scale(0.075 -0.075)">
       <use xlink:href="#DejaVuSans-35"/>
       <use xlink:href="#DejaVuSans-39" transform="translate(63.623047 0)"/>
      </g>
     </g>
    </g>
    <g id="xtick_60">
     <g id="line2d_60">
      <g>
       <use xlink:href="#m9f1298bb50" x="977.433187" y="450.72" style="stroke: #000000; stroke-width: 0.8"/>
      </g>
     </g>
     <g id="text_60">
      <!-- 60 -->
      <g transform="translate(979.502718 467.26375) rotate(-90) scale(0.075 -0.075)">
       <use xlink:href="#DejaVuSans-36"/>
       <use xlink:href="#DejaVuSans-30" transform="translate(63.623047 0)"/>
      </g>
     </g>
    </g>
    <g id="xtick_61">
     <g id="line2d_61">
      <g>
       <use xlink:href="#m9f1298bb50" x="993.151496" y="450.72" style="stroke: #000000; stroke-width: 0.8"/>
      </g>
     </g>
     <g id="text_61">
      <!-- 61 -->
      <g transform="translate(995.221028 467.26375) rotate(-90) scale(0.075 -0.075)">
       <use xlink:href="#DejaVuSans-36"/>
       <use xlink:href="#DejaVuSans-31" transform="translate(63.623047 0)"/>
      </g>
     </g>
    </g>
    <g id="xtick_62">
     <g id="line2d_62">
      <g>
       <use xlink:href="#m9f1298bb50" x="1008.869806" y="450.72" style="stroke: #000000; stroke-width: 0.8"/>
      </g>
     </g>
     <g id="text_62">
      <!-- 62 -->
      <g transform="translate(1010.939338 467.26375) rotate(-90) scale(0.075 -0.075)">
       <use xlink:href="#DejaVuSans-36"/>
       <use xlink:href="#DejaVuSans-32" transform="translate(63.623047 0)"/>
      </g>
     </g>
    </g>
    <g id="xtick_63">
     <g id="line2d_63">
      <g>
       <use xlink:href="#m9f1298bb50" x="1024.588116" y="450.72" style="stroke: #000000; stroke-width: 0.8"/>
      </g>
     </g>
     <g id="text_63">
      <!-- 63 -->
      <g transform="translate(1026.657647 467.26375) rotate(-90) scale(0.075 -0.075)">
       <use xlink:href="#DejaVuSans-36"/>
       <use xlink:href="#DejaVuSans-33" transform="translate(63.623047 0)"/>
      </g>
     </g>
    </g>
    <g id="xtick_64">
     <g id="line2d_64">
      <g>
       <use xlink:href="#m9f1298bb50" x="1040.306426" y="450.72" style="stroke: #000000; stroke-width: 0.8"/>
      </g>
     </g>
     <g id="text_64">
      <!-- 64 -->
      <g transform="translate(1042.375957 467.26375) rotate(-90) scale(0.075 -0.075)">
       <use xlink:href="#DejaVuSans-36"/>
       <use xlink:href="#DejaVuSans-34" transform="translate(63.623047 0)"/>
      </g>
     </g>
    </g>
    <g id="xtick_65">
     <g id="line2d_65">
      <g>
       <use xlink:href="#m9f1298bb50" x="1056.024736" y="450.72" style="stroke: #000000; stroke-width: 0.8"/>
      </g>
     </g>
     <g id="text_65">
      <!-- 65 -->
      <g transform="translate(1058.094267 467.26375) rotate(-90) scale(0.075 -0.075)">
       <use xlink:href="#DejaVuSans-36"/>
       <use xlink:href="#DejaVuSans-35" transform="translate(63.623047 0)"/>
      </g>
     </g>
    </g>
    <g id="xtick_66">
     <g id="line2d_66">
      <g>
       <use xlink:href="#m9f1298bb50" x="1071.743046" y="450.72" style="stroke: #000000; stroke-width: 0.8"/>
      </g>
     </g>
     <g id="text_66">
      <!-- 66 -->
      <g transform="translate(1073.812577 467.26375) rotate(-90) scale(0.075 -0.075)">
       <use xlink:href="#DejaVuSans-36"/>
       <use xlink:href="#DejaVuSans-36" transform="translate(63.623047 0)"/>
      </g>
     </g>
    </g>
    <g id="xtick_67">
     <g id="line2d_67">
      <g>
       <use xlink:href="#m9f1298bb50" x="1087.461356" y="450.72" style="stroke: #000000; stroke-width: 0.8"/>
      </g>
     </g>
     <g id="text_67">
      <!-- 67 -->
      <g transform="translate(1089.530887 467.26375) rotate(-90) scale(0.075 -0.075)">
       <use xlink:href="#DejaVuSans-36"/>
       <use xlink:href="#DejaVuSans-37" transform="translate(63.623047 0)"/>
      </g>
     </g>
    </g>
    <g id="xtick_68">
     <g id="line2d_68">
      <g>
       <use xlink:href="#m9f1298bb50" x="1103.179665" y="450.72" style="stroke: #000000; stroke-width: 0.8"/>
      </g>
     </g>
     <g id="text_68">
      <!-- 68 -->
      <g transform="translate(1105.249197 467.26375) rotate(-90) scale(0.075 -0.075)">
       <use xlink:href="#DejaVuSans-36"/>
       <use xlink:href="#DejaVuSans-38" transform="translate(63.623047 0)"/>
      </g>
     </g>
    </g>
    <g id="xtick_69">
     <g id="line2d_69">
      <g>
       <use xlink:href="#m9f1298bb50" x="1118.897975" y="450.72" style="stroke: #000000; stroke-width: 0.8"/>
      </g>
     </g>
     <g id="text_69">
      <!-- 69 -->
      <g transform="translate(1120.967507 467.26375) rotate(-90) scale(0.075 -0.075)">
       <use xlink:href="#DejaVuSans-36"/>
       <use xlink:href="#DejaVuSans-39" transform="translate(63.623047 0)"/>
      </g>
     </g>
    </g>
    <g id="xtick_70">
     <g id="line2d_70">
      <g>
       <use xlink:href="#m9f1298bb50" x="1134.616285" y="450.72" style="stroke: #000000; stroke-width: 0.8"/>
      </g>
     </g>
     <g id="text_70">
      <!-- 70 -->
      <g transform="translate(1136.685816 467.26375) rotate(-90) scale(0.075 -0.075)">
       <use xlink:href="#DejaVuSans-37"/>
       <use xlink:href="#DejaVuSans-30" transform="translate(63.623047 0)"/>
      </g>
     </g>
    </g>
    <g id="xtick_71">
     <g id="line2d_71">
      <g>
       <use xlink:href="#m9f1298bb50" x="1150.334595" y="450.72" style="stroke: #000000; stroke-width: 0.8"/>
      </g>
     </g>
     <g id="text_71">
      <!-- 71 -->
      <g transform="translate(1152.404126 467.26375) rotate(-90) scale(0.075 -0.075)">
       <use xlink:href="#DejaVuSans-37"/>
       <use xlink:href="#DejaVuSans-31" transform="translate(63.623047 0)"/>
      </g>
     </g>
    </g>
    <g id="text_72">
     <!-- Fitt -->
     <g transform="translate(592.371094 478.862188) scale(0.1 -0.1)">
      <defs>
       <path id="DejaVuSans-46" d="M 628 4666 
L 3309 4666 
L 3309 4134 
L 1259 4134 
L 1259 2759 
L 3109 2759 
L 3109 2228 
L 1259 2228 
L 1259 0 
L 628 0 
L 628 4666 
z
" transform="scale(0.015625)"/>
       <path id="DejaVuSans-69" d="M 603 3500 
L 1178 3500 
L 1178 0 
L 603 0 
L 603 3500 
z
M 603 4863 
L 1178 4863 
L 1178 4134 
L 603 4134 
L 603 4863 
z
" transform="scale(0.015625)"/>
       <path id="DejaVuSans-74" d="M 1172 4494 
L 1172 3500 
L 2356 3500 
L 2356 3053 
L 1172 3053 
L 1172 1153 
Q 1172 725 1289 603 
Q 1406 481 1766 481 
L 2356 481 
L 2356 0 
L 1766 0 
Q 1100 0 847 248 
Q 594 497 594 1153 
L 594 3053 
L 172 3053 
L 172 3500 
L 594 3500 
L 594 4494 
L 1172 4494 
z
" transform="scale(0.015625)"/>
      </defs>
      <use xlink:href="#DejaVuSans-46"/>
      <use xlink:href="#DejaVuSans-69" transform="translate(50.269531 0)"/>
      <use xlink:href="#DejaVuSans-74" transform="translate(78.052734 0)"/>
      <use xlink:href="#DejaVuSans-74" transform="translate(117.261719 0)"/>
     </g>
    </g>
   </g>
   <g id="matplotlib.axis_2">
    <g id="ytick_1">
     <g id="line2d_72">
      <defs>
       <path id="mbc9473de95" d="M 0 0 
L -3.5 0 
" style="stroke: #000000; stroke-width: 0.8"/>
      </defs>
      <g>
       <use xlink:href="#mbc9473de95" x="42.19375" y="450.72" style="stroke: #000000; stroke-width: 0.8"/>
      </g>
     </g>
     <g id="text_73">
      <!-- 0 -->
      <g transform="translate(30.421875 453.569414) scale(0.075 -0.075)">
       <use xlink:href="#DejaVuSans-30"/>
      </g>
     </g>
    </g>
    <g id="ytick_2">
     <g id="line2d_73">
      <g>
       <use xlink:href="#mbc9473de95" x="42.19375" y="400.731834" style="stroke: #000000; stroke-width: 0.8"/>
      </g>
     </g>
     <g id="text_74">
      <!-- 20 -->
      <g transform="translate(25.65 403.581248) scale(0.075 -0.075)">
       <use xlink:href="#DejaVuSans-32"/>
       <use xlink:href="#DejaVuSans-30" transform="translate(63.623047 0)"/>
      </g>
     </g>
    </g>
    <g id="ytick_3">
     <g id="line2d_74">
      <g>
       <use xlink:href="#mbc9473de95" x="42.19375" y="350.743669" style="stroke: #000000; stroke-width: 0.8"/>
      </g>
     </g>
     <g id="text_75">
      <!-- 40 -->
      <g transform="translate(25.65 353.593083) scale(0.075 -0.075)">
       <use xlink:href="#DejaVuSans-34"/>
       <use xlink:href="#DejaVuSans-30" transform="translate(63.623047 0)"/>
      </g>
     </g>
    </g>
    <g id="ytick_4">
     <g id="line2d_75">
      <g>
       <use xlink:href="#mbc9473de95" x="42.19375" y="300.755503" style="stroke: #000000; stroke-width: 0.8"/>
      </g>
     </g>
     <g id="text_76">
      <!-- 60 -->
      <g transform="translate(25.65 303.604917) scale(0.075 -0.075)">
       <use xlink:href="#DejaVuSans-36"/>
       <use xlink:href="#DejaVuSans-30" transform="translate(63.623047 0)"/>
      </g>
     </g>
    </g>
    <g id="ytick_5">
     <g id="line2d_76">
      <g>
       <use xlink:href="#mbc9473de95" x="42.19375" y="250.767337" style="stroke: #000000; stroke-width: 0.8"/>
      </g>
     </g>
     <g id="text_77">
      <!-- 80 -->
      <g transform="translate(25.65 253.616751) scale(0.075 -0.075)">
       <use xlink:href="#DejaVuSans-38"/>
       <use xlink:href="#DejaVuSans-30" transform="translate(63.623047 0)"/>
      </g>
     </g>
    </g>
    <g id="ytick_6">
     <g id="line2d_77">
      <g>
       <use xlink:href="#mbc9473de95" x="42.19375" y="200.779172" style="stroke: #000000; stroke-width: 0.8"/>
      </g>
     </g>
     <g id="text_78">
      <!-- 100 -->
      <g transform="translate(20.878125 203.628586) scale(0.075 -0.075)">
       <use xlink:href="#DejaVuSans-31"/>
       <use xlink:href="#DejaVuSans-30" transform="translate(63.623047 0)"/>
       <use xlink:href="#DejaVuSans-30" transform="translate(127.246094 0)"/>
      </g>
     </g>
    </g>
    <g id="ytick_7">
     <g id="line2d_78">
      <g>
       <use xlink:href="#mbc9473de95" x="42.19375" y="150.791006" style="stroke: #000000; stroke-width: 0.8"/>
      </g>
     </g>
     <g id="text_79">
      <!-- 120 -->
      <g transform="translate(20.878125 153.64042) scale(0.075 -0.075)">
       <use xlink:href="#DejaVuSans-31"/>
       <use xlink:href="#DejaVuSans-32" transform="translate(63.623047 0)"/>
       <use xlink:href="#DejaVuSans-30" transform="translate(127.246094 0)"/>
      </g>
     </g>
    </g>
    <g id="ytick_8">
     <g id="line2d_79">
      <g>
       <use xlink:href="#mbc9473de95" x="42.19375" y="100.80284" style="stroke: #000000; stroke-width: 0.8"/>
      </g>
     </g>
     <g id="text_80">
      <!-- 140 -->
      <g transform="translate(20.878125 103.652254) scale(0.075 -0.075)">
       <use xlink:href="#DejaVuSans-31"/>
       <use xlink:href="#DejaVuSans-34" transform="translate(63.623047 0)"/>
       <use xlink:href="#DejaVuSans-30" transform="translate(127.246094 0)"/>
      </g>
     </g>
    </g>
    <g id="ytick_9">
     <g id="line2d_80">
      <g>
       <use xlink:href="#mbc9473de95" x="42.19375" y="50.814675" style="stroke: #000000; stroke-width: 0.8"/>
      </g>
     </g>
     <g id="text_81">
      <!-- 160 -->
      <g transform="translate(20.878125 53.664089) scale(0.075 -0.075)">
       <use xlink:href="#DejaVuSans-31"/>
       <use xlink:href="#DejaVuSans-36" transform="translate(63.623047 0)"/>
       <use xlink:href="#DejaVuSans-30" transform="translate(127.246094 0)"/>
      </g>
     </g>
    </g>
    <g id="text_82">
     <!-- Count of fitt-marginal halflines that do not translate Bible verses directly -->
     <g transform="translate(14.798438 410.885) rotate(-90) scale(0.1 -0.1)">
      <defs>
       <path id="DejaVuSans-43" d="M 4122 4306 
L 4122 3641 
Q 3803 3938 3442 4084 
Q 3081 4231 2675 4231 
Q 1875 4231 1450 3742 
Q 1025 3253 1025 2328 
Q 1025 1406 1450 917 
Q 1875 428 2675 428 
Q 3081 428 3442 575 
Q 3803 722 4122 1019 
L 4122 359 
Q 3791 134 3420 21 
Q 3050 -91 2638 -91 
Q 1578 -91 968 557 
Q 359 1206 359 2328 
Q 359 3453 968 4101 
Q 1578 4750 2638 4750 
Q 3056 4750 3426 4639 
Q 3797 4528 4122 4306 
z
" transform="scale(0.015625)"/>
       <path id="DejaVuSans-6f" d="M 1959 3097 
Q 1497 3097 1228 2736 
Q 959 2375 959 1747 
Q 959 1119 1226 758 
Q 1494 397 1959 397 
Q 2419 397 2687 759 
Q 2956 1122 2956 1747 
Q 2956 2369 2687 2733 
Q 2419 3097 1959 3097 
z
M 1959 3584 
Q 2709 3584 3137 3096 
Q 3566 2609 3566 1747 
Q 3566 888 3137 398 
Q 2709 -91 1959 -91 
Q 1206 -91 779 398 
Q 353 888 353 1747 
Q 353 2609 779 3096 
Q 1206 3584 1959 3584 
z
" transform="scale(0.015625)"/>
       <path id="DejaVuSans-75" d="M 544 1381 
L 544 3500 
L 1119 3500 
L 1119 1403 
Q 1119 906 1312 657 
Q 1506 409 1894 409 
Q 2359 409 2629 706 
Q 2900 1003 2900 1516 
L 2900 3500 
L 3475 3500 
L 3475 0 
L 2900 0 
L 2900 538 
Q 2691 219 2414 64 
Q 2138 -91 1772 -91 
Q 1169 -91 856 284 
Q 544 659 544 1381 
z
M 1991 3584 
L 1991 3584 
z
" transform="scale(0.015625)"/>
       <path id="DejaVuSans-6e" d="M 3513 2113 
L 3513 0 
L 2938 0 
L 2938 2094 
Q 2938 2591 2744 2837 
Q 2550 3084 2163 3084 
Q 1697 3084 1428 2787 
Q 1159 2491 1159 1978 
L 1159 0 
L 581 0 
L 581 3500 
L 1159 3500 
L 1159 2956 
Q 1366 3272 1645 3428 
Q 1925 3584 2291 3584 
Q 2894 3584 3203 3211 
Q 3513 2838 3513 2113 
z
" transform="scale(0.015625)"/>
       <path id="DejaVuSans-20" transform="scale(0.015625)"/>
       <path id="DejaVuSans-66" d="M 2375 4863 
L 2375 4384 
L 1825 4384 
Q 1516 4384 1395 4259 
Q 1275 4134 1275 3809 
L 1275 3500 
L 2222 3500 
L 2222 3053 
L 1275 3053 
L 1275 0 
L 697 0 
L 697 3053 
L 147 3053 
L 147 3500 
L 697 3500 
L 697 3744 
Q 697 4328 969 4595 
Q 1241 4863 1831 4863 
L 2375 4863 
z
" transform="scale(0.015625)"/>
       <path id="DejaVuSans-2d" d="M 313 2009 
L 1997 2009 
L 1997 1497 
L 313 1497 
L 313 2009 
z
" transform="scale(0.015625)"/>
       <path id="DejaVuSans-6d" d="M 3328 2828 
Q 3544 3216 3844 3400 
Q 4144 3584 4550 3584 
Q 5097 3584 5394 3201 
Q 5691 2819 5691 2113 
L 5691 0 
L 5113 0 
L 5113 2094 
Q 5113 2597 4934 2840 
Q 4756 3084 4391 3084 
Q 3944 3084 3684 2787 
Q 3425 2491 3425 1978 
L 3425 0 
L 2847 0 
L 2847 2094 
Q 2847 2600 2669 2842 
Q 2491 3084 2119 3084 
Q 1678 3084 1418 2786 
Q 1159 2488 1159 1978 
L 1159 0 
L 581 0 
L 581 3500 
L 1159 3500 
L 1159 2956 
Q 1356 3278 1631 3431 
Q 1906 3584 2284 3584 
Q 2666 3584 2933 3390 
Q 3200 3197 3328 2828 
z
" transform="scale(0.015625)"/>
       <path id="DejaVuSans-61" d="M 2194 1759 
Q 1497 1759 1228 1600 
Q 959 1441 959 1056 
Q 959 750 1161 570 
Q 1363 391 1709 391 
Q 2188 391 2477 730 
Q 2766 1069 2766 1631 
L 2766 1759 
L 2194 1759 
z
M 3341 1997 
L 3341 0 
L 2766 0 
L 2766 531 
Q 2569 213 2275 61 
Q 1981 -91 1556 -91 
Q 1019 -91 701 211 
Q 384 513 384 1019 
Q 384 1609 779 1909 
Q 1175 2209 1959 2209 
L 2766 2209 
L 2766 2266 
Q 2766 2663 2505 2880 
Q 2244 3097 1772 3097 
Q 1472 3097 1187 3025 
Q 903 2953 641 2809 
L 641 3341 
Q 956 3463 1253 3523 
Q 1550 3584 1831 3584 
Q 2591 3584 2966 3190 
Q 3341 2797 3341 1997 
z
" transform="scale(0.015625)"/>
       <path id="DejaVuSans-72" d="M 2631 2963 
Q 2534 3019 2420 3045 
Q 2306 3072 2169 3072 
Q 1681 3072 1420 2755 
Q 1159 2438 1159 1844 
L 1159 0 
L 581 0 
L 581 3500 
L 1159 3500 
L 1159 2956 
Q 1341 3275 1631 3429 
Q 1922 3584 2338 3584 
Q 2397 3584 2469 3576 
Q 2541 3569 2628 3553 
L 2631 2963 
z
" transform="scale(0.015625)"/>
       <path id="DejaVuSans-67" d="M 2906 1791 
Q 2906 2416 2648 2759 
Q 2391 3103 1925 3103 
Q 1463 3103 1205 2759 
Q 947 2416 947 1791 
Q 947 1169 1205 825 
Q 1463 481 1925 481 
Q 2391 481 2648 825 
Q 2906 1169 2906 1791 
z
M 3481 434 
Q 3481 -459 3084 -895 
Q 2688 -1331 1869 -1331 
Q 1566 -1331 1297 -1286 
Q 1028 -1241 775 -1147 
L 775 -588 
Q 1028 -725 1275 -790 
Q 1522 -856 1778 -856 
Q 2344 -856 2625 -561 
Q 2906 -266 2906 331 
L 2906 616 
Q 2728 306 2450 153 
Q 2172 0 1784 0 
Q 1141 0 747 490 
Q 353 981 353 1791 
Q 353 2603 747 3093 
Q 1141 3584 1784 3584 
Q 2172 3584 2450 3431 
Q 2728 3278 2906 2969 
L 2906 3500 
L 3481 3500 
L 3481 434 
z
" transform="scale(0.015625)"/>
       <path id="DejaVuSans-6c" d="M 603 4863 
L 1178 4863 
L 1178 0 
L 603 0 
L 603 4863 
z
" transform="scale(0.015625)"/>
       <path id="DejaVuSans-68" d="M 3513 2113 
L 3513 0 
L 2938 0 
L 2938 2094 
Q 2938 2591 2744 2837 
Q 2550 3084 2163 3084 
Q 1697 3084 1428 2787 
Q 1159 2491 1159 1978 
L 1159 0 
L 581 0 
L 581 4863 
L 1159 4863 
L 1159 2956 
Q 1366 3272 1645 3428 
Q 1925 3584 2291 3584 
Q 2894 3584 3203 3211 
Q 3513 2838 3513 2113 
z
" transform="scale(0.015625)"/>
       <path id="DejaVuSans-65" d="M 3597 1894 
L 3597 1613 
L 953 1613 
Q 991 1019 1311 708 
Q 1631 397 2203 397 
Q 2534 397 2845 478 
Q 3156 559 3463 722 
L 3463 178 
Q 3153 47 2828 -22 
Q 2503 -91 2169 -91 
Q 1331 -91 842 396 
Q 353 884 353 1716 
Q 353 2575 817 3079 
Q 1281 3584 2069 3584 
Q 2775 3584 3186 3129 
Q 3597 2675 3597 1894 
z
M 3022 2063 
Q 3016 2534 2758 2815 
Q 2500 3097 2075 3097 
Q 1594 3097 1305 2825 
Q 1016 2553 972 2059 
L 3022 2063 
z
" transform="scale(0.015625)"/>
       <path id="DejaVuSans-73" d="M 2834 3397 
L 2834 2853 
Q 2591 2978 2328 3040 
Q 2066 3103 1784 3103 
Q 1356 3103 1142 2972 
Q 928 2841 928 2578 
Q 928 2378 1081 2264 
Q 1234 2150 1697 2047 
L 1894 2003 
Q 2506 1872 2764 1633 
Q 3022 1394 3022 966 
Q 3022 478 2636 193 
Q 2250 -91 1575 -91 
Q 1294 -91 989 -36 
Q 684 19 347 128 
L 347 722 
Q 666 556 975 473 
Q 1284 391 1588 391 
Q 1994 391 2212 530 
Q 2431 669 2431 922 
Q 2431 1156 2273 1281 
Q 2116 1406 1581 1522 
L 1381 1569 
Q 847 1681 609 1914 
Q 372 2147 372 2553 
Q 372 3047 722 3315 
Q 1072 3584 1716 3584 
Q 2034 3584 2315 3537 
Q 2597 3491 2834 3397 
z
" transform="scale(0.015625)"/>
       <path id="DejaVuSans-64" d="M 2906 2969 
L 2906 4863 
L 3481 4863 
L 3481 0 
L 2906 0 
L 2906 525 
Q 2725 213 2448 61 
Q 2172 -91 1784 -91 
Q 1150 -91 751 415 
Q 353 922 353 1747 
Q 353 2572 751 3078 
Q 1150 3584 1784 3584 
Q 2172 3584 2448 3432 
Q 2725 3281 2906 2969 
z
M 947 1747 
Q 947 1113 1208 752 
Q 1469 391 1925 391 
Q 2381 391 2643 752 
Q 2906 1113 2906 1747 
Q 2906 2381 2643 2742 
Q 2381 3103 1925 3103 
Q 1469 3103 1208 2742 
Q 947 2381 947 1747 
z
" transform="scale(0.015625)"/>
       <path id="DejaVuSans-42" d="M 1259 2228 
L 1259 519 
L 2272 519 
Q 2781 519 3026 730 
Q 3272 941 3272 1375 
Q 3272 1813 3026 2020 
Q 2781 2228 2272 2228 
L 1259 2228 
z
M 1259 4147 
L 1259 2741 
L 2194 2741 
Q 2656 2741 2882 2914 
Q 3109 3088 3109 3444 
Q 3109 3797 2882 3972 
Q 2656 4147 2194 4147 
L 1259 4147 
z
M 628 4666 
L 2241 4666 
Q 2963 4666 3353 4366 
Q 3744 4066 3744 3513 
Q 3744 3084 3544 2831 
Q 3344 2578 2956 2516 
Q 3422 2416 3680 2098 
Q 3938 1781 3938 1306 
Q 3938 681 3513 340 
Q 3088 0 2303 0 
L 628 0 
L 628 4666 
z
" transform="scale(0.015625)"/>
       <path id="DejaVuSans-62" d="M 3116 1747 
Q 3116 2381 2855 2742 
Q 2594 3103 2138 3103 
Q 1681 3103 1420 2742 
Q 1159 2381 1159 1747 
Q 1159 1113 1420 752 
Q 1681 391 2138 391 
Q 2594 391 2855 752 
Q 3116 1113 3116 1747 
z
M 1159 2969 
Q 1341 3281 1617 3432 
Q 1894 3584 2278 3584 
Q 2916 3584 3314 3078 
Q 3713 2572 3713 1747 
Q 3713 922 3314 415 
Q 2916 -91 2278 -91 
Q 1894 -91 1617 61 
Q 1341 213 1159 525 
L 1159 0 
L 581 0 
L 581 4863 
L 1159 4863 
L 1159 2969 
z
" transform="scale(0.015625)"/>
       <path id="DejaVuSans-76" d="M 191 3500 
L 800 3500 
L 1894 563 
L 2988 3500 
L 3597 3500 
L 2284 0 
L 1503 0 
L 191 3500 
z
" transform="scale(0.015625)"/>
       <path id="DejaVuSans-63" d="M 3122 3366 
L 3122 2828 
Q 2878 2963 2633 3030 
Q 2388 3097 2138 3097 
Q 1578 3097 1268 2742 
Q 959 2388 959 1747 
Q 959 1106 1268 751 
Q 1578 397 2138 397 
Q 2388 397 2633 464 
Q 2878 531 3122 666 
L 3122 134 
Q 2881 22 2623 -34 
Q 2366 -91 2075 -91 
Q 1284 -91 818 406 
Q 353 903 353 1747 
Q 353 2603 823 3093 
Q 1294 3584 2113 3584 
Q 2378 3584 2631 3529 
Q 2884 3475 3122 3366 
z
" transform="scale(0.015625)"/>
       <path id="DejaVuSans-79" d="M 2059 -325 
Q 1816 -950 1584 -1140 
Q 1353 -1331 966 -1331 
L 506 -1331 
L 506 -850 
L 844 -850 
Q 1081 -850 1212 -737 
Q 1344 -625 1503 -206 
L 1606 56 
L 191 3500 
L 800 3500 
L 1894 763 
L 2988 3500 
L 3597 3500 
L 2059 -325 
z
" transform="scale(0.015625)"/>
      </defs>
      <use xlink:href="#DejaVuSans-43"/>
      <use xlink:href="#DejaVuSans-6f" transform="translate(69.824219 0)"/>
      <use xlink:href="#DejaVuSans-75" transform="translate(131.005859 0)"/>
      <use xlink:href="#DejaVuSans-6e" transform="translate(194.384766 0)"/>
      <use xlink:href="#DejaVuSans-74" transform="translate(257.763672 0)"/>
      <use xlink:href="#DejaVuSans-20" transform="translate(296.972656 0)"/>
      <use xlink:href="#DejaVuSans-6f" transform="translate(328.759766 0)"/>
      <use xlink:href="#DejaVuSans-66" transform="translate(389.941406 0)"/>
      <use xlink:href="#DejaVuSans-20" transform="translate(425.146484 0)"/>
      <use xlink:href="#DejaVuSans-66" transform="translate(456.933594 0)"/>
      <use xlink:href="#DejaVuSans-69" transform="translate(492.138672 0)"/>
      <use xlink:href="#DejaVuSans-74" transform="translate(519.921875 0)"/>
      <use xlink:href="#DejaVuSans-74" transform="translate(559.130859 0)"/>
      <use xlink:href="#DejaVuSans-2d" transform="translate(598.339844 0)"/>
      <use xlink:href="#DejaVuSans-6d" transform="translate(634.423828 0)"/>
      <use xlink:href="#DejaVuSans-61" transform="translate(731.835938 0)"/>
      <use xlink:href="#DejaVuSans-72" transform="translate(793.115234 0)"/>
      <use xlink:href="#DejaVuSans-67" transform="translate(832.478516 0)"/>
      <use xlink:href="#DejaVuSans-69" transform="translate(895.955078 0)"/>
      <use xlink:href="#DejaVuSans-6e" transform="translate(923.738281 0)"/>
      <use xlink:href="#DejaVuSans-61" transform="translate(987.117188 0)"/>
      <use xlink:href="#DejaVuSans-6c" transform="translate(1048.396484 0)"/>
      <use xlink:href="#DejaVuSans-20" transform="translate(1076.179688 0)"/>
      <use xlink:href="#DejaVuSans-68" transform="translate(1107.966797 0)"/>
      <use xlink:href="#DejaVuSans-61" transform="translate(1171.345703 0)"/>
      <use xlink:href="#DejaVuSans-6c" transform="translate(1232.625 0)"/>
      <use xlink:href="#DejaVuSans-66" transform="translate(1260.408203 0)"/>
      <use xlink:href="#DejaVuSans-6c" transform="translate(1295.613281 0)"/>
      <use xlink:href="#DejaVuSans-69" transform="translate(1323.396484 0)"/>
      <use xlink:href="#DejaVuSans-6e" transform="translate(1351.179688 0)"/>
      <use xlink:href="#DejaVuSans-65" transform="translate(1414.558594 0)"/>
      <use xlink:href="#DejaVuSans-73" transform="translate(1476.082031 0)"/>
      <use xlink:href="#DejaVuSans-20" transform="translate(1528.181641 0)"/>
      <use xlink:href="#DejaVuSans-74" transform="translate(1559.96875 0)"/>
      <use xlink:href="#DejaVuSans-68" transform="translate(1599.177734 0)"/>
      <use xlink:href="#DejaVuSans-61" transform="translate(1662.556641 0)"/>
      <use xlink:href="#DejaVuSans-74" transform="translate(1723.835938 0)"/>
      <use xlink:href="#DejaVuSans-20" transform="translate(1763.044922 0)"/>
      <use xlink:href="#DejaVuSans-64" transform="translate(1794.832031 0)"/>
      <use xlink:href="#DejaVuSans-6f" transform="translate(1858.308594 0)"/>
      <use xlink:href="#DejaVuSans-20" transform="translate(1919.490234 0)"/>
      <use xlink:href="#DejaVuSans-6e" transform="translate(1951.277344 0)"/>
      <use xlink:href="#DejaVuSans-6f" transform="translate(2014.65625 0)"/>
      <use xlink:href="#DejaVuSans-74" transform="translate(2075.837891 0)"/>
      <use xlink:href="#DejaVuSans-20" transform="translate(2115.046875 0)"/>
      <use xlink:href="#DejaVuSans-74" transform="translate(2146.833984 0)"/>
      <use xlink:href="#DejaVuSans-72" transform="translate(2186.042969 0)"/>
      <use xlink:href="#DejaVuSans-61" transform="translate(2227.15625 0)"/>
      <use xlink:href="#DejaVuSans-6e" transform="translate(2288.435547 0)"/>
      <use xlink:href="#DejaVuSans-73" transform="translate(2351.814453 0)"/>
      <use xlink:href="#DejaVuSans-6c" transform="translate(2403.914062 0)"/>
      <use xlink:href="#DejaVuSans-61" transform="translate(2431.697266 0)"/>
      <use xlink:href="#DejaVuSans-74" transform="translate(2492.976562 0)"/>
      <use xlink:href="#DejaVuSans-65" transform="translate(2532.185547 0)"/>
      <use xlink:href="#DejaVuSans-20" transform="translate(2593.708984 0)"/>
      <use xlink:href="#DejaVuSans-42" transform="translate(2625.496094 0)"/>
      <use xlink:href="#DejaVuSans-69" transform="translate(2694.099609 0)"/>
      <use xlink:href="#DejaVuSans-62" transform="translate(2721.882812 0)"/>
      <use xlink:href="#DejaVuSans-6c" transform="translate(2785.359375 0)"/>
      <use xlink:href="#DejaVuSans-65" transform="translate(2813.142578 0)"/>
      <use xlink:href="#DejaVuSans-20" transform="translate(2874.666016 0)"/>
      <use xlink:href="#DejaVuSans-76" transform="translate(2906.453125 0)"/>
      <use xlink:href="#DejaVuSans-65" transform="translate(2965.632812 0)"/>
      <use xlink:href="#DejaVuSans-72" transform="translate(3027.15625 0)"/>
      <use xlink:href="#DejaVuSans-73" transform="translate(3068.269531 0)"/>
      <use xlink:href="#DejaVuSans-65" transform="translate(3120.369141 0)"/>
      <use xlink:href="#DejaVuSans-73" transform="translate(3181.892578 0)"/>
      <use xlink:href="#DejaVuSans-20" transform="translate(3233.992188 0)"/>
      <use xlink:href="#DejaVuSans-64" transform="translate(3265.779297 0)"/>
      <use xlink:href="#DejaVuSans-69" transform="translate(3329.255859 0)"/>
      <use xlink:href="#DejaVuSans-72" transform="translate(3357.039062 0)"/>
      <use xlink:href="#DejaVuSans-65" transform="translate(3395.902344 0)"/>
      <use xlink:href="#DejaVuSans-63" transform="translate(3457.425781 0)"/>
      <use xlink:href="#DejaVuSans-74" transform="translate(3512.40625 0)"/>
      <use xlink:href="#DejaVuSans-6c" transform="translate(3551.615234 0)"/>
      <use xlink:href="#DejaVuSans-79" transform="translate(3579.398438 0)"/>
     </g>
    </g>
   </g>
   <g id="patch_145">
    <path d="M 42.19375 450.72 
L 42.19375 7.2 
" style="fill: none; stroke: #000000; stroke-width: 0.8; stroke-linejoin: miter; stroke-linecap: square"/>
   </g>
   <g id="patch_146">
    <path d="M 1158.19375 450.72 
L 1158.19375 7.2 
" style="fill: none; stroke: #000000; stroke-width: 0.8; stroke-linejoin: miter; stroke-linecap: square"/>
   </g>
   <g id="patch_147">
    <path d="M 42.19375 450.72 
L 1158.19375 450.72 
" style="fill: none; stroke: #000000; stroke-width: 0.8; stroke-linejoin: miter; stroke-linecap: square"/>
   </g>
   <g id="patch_148">
    <path d="M 42.19375 7.2 
L 1158.19375 7.2 
" style="fill: none; stroke: #000000; stroke-width: 0.8; stroke-linejoin: miter; stroke-linecap: square"/>
   </g>
   <g id="legend_1">
    <g id="patch_149">
     <path d="M 1058.16875 59.234375 
L 1151.19375 59.234375 
Q 1153.19375 59.234375 1153.19375 57.234375 
L 1153.19375 14.2 
Q 1153.19375 12.2 1151.19375 12.2 
L 1058.16875 12.2 
Q 1056.16875 12.2 1056.16875 14.2 
L 1056.16875 57.234375 
Q 1056.16875 59.234375 1058.16875 59.234375 
z
" style="fill: #ffffff; opacity: 0.8; stroke: #cccccc; stroke-linejoin: miter"/>
    </g>
    <g id="text_83">
     <!-- Source fraying -->
     <g transform="translate(1068.35 23.798438) scale(0.1 -0.1)">
      <defs>
       <path id="DejaVuSans-53" d="M 3425 4513 
L 3425 3897 
Q 3066 4069 2747 4153 
Q 2428 4238 2131 4238 
Q 1616 4238 1336 4038 
Q 1056 3838 1056 3469 
Q 1056 3159 1242 3001 
Q 1428 2844 1947 2747 
L 2328 2669 
Q 3034 2534 3370 2195 
Q 3706 1856 3706 1288 
Q 3706 609 3251 259 
Q 2797 -91 1919 -91 
Q 1588 -91 1214 -16 
Q 841 59 441 206 
L 441 856 
Q 825 641 1194 531 
Q 1563 422 1919 422 
Q 2459 422 2753 634 
Q 3047 847 3047 1241 
Q 3047 1584 2836 1778 
Q 2625 1972 2144 2069 
L 1759 2144 
Q 1053 2284 737 2584 
Q 422 2884 422 3419 
Q 422 4038 858 4394 
Q 1294 4750 2059 4750 
Q 2388 4750 2728 4690 
Q 3069 4631 3425 4513 
z
" transform="scale(0.015625)"/>
      </defs>
      <use xlink:href="#DejaVuSans-53"/>
      <use xlink:href="#DejaVuSans-6f" transform="translate(63.476562 0)"/>
      <use xlink:href="#DejaVuSans-75" transform="translate(124.658203 0)"/>
      <use xlink:href="#DejaVuSans-72" transform="translate(188.037109 0)"/>
      <use xlink:href="#DejaVuSans-63" transform="translate(226.900391 0)"/>
      <use xlink:href="#DejaVuSans-65" transform="translate(281.880859 0)"/>
      <use xlink:href="#DejaVuSans-20" transform="translate(343.404297 0)"/>
      <use xlink:href="#DejaVuSans-66" transform="translate(375.191406 0)"/>
      <use xlink:href="#DejaVuSans-72" transform="translate(410.396484 0)"/>
      <use xlink:href="#DejaVuSans-61" transform="translate(451.509766 0)"/>
      <use xlink:href="#DejaVuSans-79" transform="translate(512.789062 0)"/>
      <use xlink:href="#DejaVuSans-69" transform="translate(571.96875 0)"/>
      <use xlink:href="#DejaVuSans-6e" transform="translate(599.751953 0)"/>
      <use xlink:href="#DejaVuSans-67" transform="translate(663.130859 0)"/>
     </g>
    </g>
    <g id="patch_150">
     <path d="M 1060.16875 38.476563 
L 1080.16875 38.476563 
L 1080.16875 31.476563 
L 1060.16875 31.476563 
z
" style="fill: #1f77b4"/>
    </g>
    <g id="text_84">
     <!-- Fitt-initial -->
     <g transform="translate(1088.16875 38.476563) scale(0.1 -0.1)">
      <use xlink:href="#DejaVuSans-46"/>
      <use xlink:href="#DejaVuSans-69" transform="translate(50.269531 0)"/>
      <use xlink:href="#DejaVuSans-74" transform="translate(78.052734 0)"/>
      <use xlink:href="#DejaVuSans-74" transform="translate(117.261719 0)"/>
      <use xlink:href="#DejaVuSans-2d" transform="translate(156.470703 0)"/>
      <use xlink:href="#DejaVuSans-69" transform="translate(192.554688 0)"/>
      <use xlink:href="#DejaVuSans-6e" transform="translate(220.337891 0)"/>
      <use xlink:href="#DejaVuSans-69" transform="translate(283.716797 0)"/>
      <use xlink:href="#DejaVuSans-74" transform="translate(311.5 0)"/>
      <use xlink:href="#DejaVuSans-69" transform="translate(350.708984 0)"/>
      <use xlink:href="#DejaVuSans-61" transform="translate(378.492188 0)"/>
      <use xlink:href="#DejaVuSans-6c" transform="translate(439.771484 0)"/>
     </g>
    </g>
    <g id="patch_151">
     <path d="M 1060.16875 53.154688 
L 1080.16875 53.154688 
L 1080.16875 46.154688 
L 1060.16875 46.154688 
z
" style="fill: #ff7f0e"/>
    </g>
    <g id="text_85">
     <!-- Fitt-terminal -->
     <g transform="translate(1088.16875 53.154688) scale(0.1 -0.1)">
      <use xlink:href="#DejaVuSans-46"/>
      <use xlink:href="#DejaVuSans-69" transform="translate(50.269531 0)"/>
      <use xlink:href="#DejaVuSans-74" transform="translate(78.052734 0)"/>
      <use xlink:href="#DejaVuSans-74" transform="translate(117.261719 0)"/>
      <use xlink:href="#DejaVuSans-2d" transform="translate(156.470703 0)"/>
      <use xlink:href="#DejaVuSans-74" transform="translate(192.554688 0)"/>
      <use xlink:href="#DejaVuSans-65" transform="translate(231.763672 0)"/>
      <use xlink:href="#DejaVuSans-72" transform="translate(293.287109 0)"/>
      <use xlink:href="#DejaVuSans-6d" transform="translate(332.650391 0)"/>
      <use xlink:href="#DejaVuSans-69" transform="translate(430.0625 0)"/>
      <use xlink:href="#DejaVuSans-6e" transform="translate(457.845703 0)"/>
      <use xlink:href="#DejaVuSans-61" transform="translate(521.224609 0)"/>
      <use xlink:href="#DejaVuSans-6c" transform="translate(582.503906 0)"/>
     </g>
    </g>
   </g>
  </g>
 </g>
 <defs>
  <clipPath id="p42be29a4dd">
   <rect x="42.19375" y="7.2" width="1116" height="443.52"/>
  </clipPath>
 </defs>
</svg>
